<svg width="210" height="98" viewBox="0 0 210 98" fill="none" xmlns="http://www.w3.org/2000/svg">
<path fill-rule="evenodd" clip-rule="evenodd" d="M78.3112 10.7945L78.32 10.7907L78.3432 10.808L78.3112 10.7945ZM77.291 10.3629L78.3112 10.7945C76.0704 11.768 75.7784 14.0878 77.343 15.5024C79.2161 17.15 82.4305 15.7278 82.1356 13.109C84.6736 13.2593 86.3212 10.5652 85.9454 8.77306C87.0728 7.80182 87.1479 5.70324 85.8009 4.8823C84.3036 3.98622 82.9566 4.30419 82.0605 6.00386C79.748 5.85355 77.4933 7.6515 78.32 10.7907L77.2679 10.3455C75.8515 7.27573 78.32 4.21169 81.3841 4.95746C81.6124 4.46984 81.9425 4.03671 82.352 3.68715C82.7616 3.33758 83.2412 3.07968 83.7586 2.93075C84.2761 2.78181 84.8194 2.74527 85.3521 2.82362C85.8848 2.90196 86.3946 3.09337 86.8473 3.38498C88.7898 4.58168 89.2407 7.72665 87.1479 9.2182C88.1192 12.0626 86.0957 14.456 83.1011 14.1554C82.7253 17.8958 79.2855 18.3467 76.9672 16.6239C75.9201 15.7417 75.2061 14.528 74.9438 13.1841C74.8835 12.9545 74.8355 12.7312 74.7883 12.5117L74.7883 12.5116L74.7883 12.5116C74.6049 11.6586 74.4336 10.8617 73.5968 9.96975C72.9404 9.44345 72.1256 9.1542 71.2843 9.14883C71.2843 6.45479 68.8158 3.98621 65.6766 5.18292C64.555 4.21168 63.1328 4.13653 62.1616 5.33324C61.9613 5.59528 61.8241 5.90001 61.7607 6.22371C61.6973 6.5474 61.7094 6.88135 61.7961 7.1996C61.8828 7.51785 62.0417 7.81182 62.2605 8.05865C62.4793 8.30547 62.7521 8.4985 63.0577 8.62274C62.9825 11.0913 64.8556 12.6696 67.619 12.4383C67.6942 13.7102 69.1164 14.9821 70.4634 15.1324L70.3882 15.803C69.0412 15.6527 68.2954 16.1036 67.3994 17.2252C64.1792 17.0749 61.9361 18.5722 62.0113 20.8904C61.5638 20.9362 61.1386 21.1083 60.7853 21.3867C60.432 21.665 60.1652 22.0382 60.016 22.4626C59.8669 22.8869 59.8416 23.345 59.9431 23.7832C60.0446 24.2214 60.2686 24.6217 60.5891 24.9373C60.8575 25.2161 61.1916 25.423 61.5607 25.5392C61.9298 25.6554 62.3222 25.6771 62.7019 25.6023C63.0816 25.5275 63.4365 25.3586 63.7339 25.1112C64.0314 24.8637 64.2621 24.5455 64.4047 24.1857C66.7172 24.6367 68.7406 22.989 68.8157 21.1217C70.9143 21.1217 71.8856 20.2256 72.2845 18.2773L73.0302 18.3525C73.2557 20.4453 72.2845 22.4687 69.7407 22.2432C69.6656 24.787 67.2722 26.134 64.9539 25.3073C63.9017 27.3307 61.4332 28.0765 59.4155 26.134C58.9562 25.7208 58.6156 25.1924 58.4288 24.6035C58.2421 24.0146 58.2161 23.3865 58.3534 22.7841C58.4907 22.1817 58.7864 21.627 59.21 21.1772C59.6335 20.7274 60.1695 20.3989 60.7625 20.2256C60.7625 17.757 62.6299 15.433 66.1506 16.3349C66.2837 16.0154 66.4986 15.7367 66.7736 15.5266C67.0486 15.3165 67.3741 15.1826 67.7173 15.1381C67.3638 15.0469 67.043 14.8582 66.7915 14.5934C66.5401 14.3287 66.3681 13.9986 66.2951 13.6408C65.6979 13.7732 65.0768 13.7527 64.4896 13.5813C63.9023 13.4099 63.3677 13.093 62.9354 12.6602C62.5031 12.2273 62.187 11.6923 62.0164 11.1048C61.8458 10.5173 61.8261 9.89626 61.9592 9.29915C59.5658 8.02728 59.4907 5.63386 60.6874 4.21747C61.8841 2.80108 64.052 2.41951 65.85 3.992C69.0643 2.25764 72.5793 4.43715 72.3538 8.03883C74.6027 7.8943 75.9497 9.77319 75.6491 11.7793C75.7551 11.4089 75.9669 11.0775 76.2586 10.8259C76.5502 10.5743 76.9091 10.4134 77.291 10.3629ZM98.9914 10.1511C98.8228 10.3187 98.5951 10.4134 98.3574 10.4149C98.1206 10.4119 97.8944 10.3165 97.727 10.1491C97.5596 9.98171 97.4643 9.75551 97.4613 9.51879C97.4794 9.29281 97.582 9.08197 97.7486 8.92821C97.9152 8.77445 98.1336 8.68908 98.3603 8.68908C98.587 8.68908 98.8053 8.77445 98.9719 8.92821C99.1385 9.08197 99.2411 9.29281 99.2592 9.51879C99.2562 9.7565 99.16 9.98356 98.9914 10.1511ZM113.539 11.9812C113.343 12.1774 113.076 12.2877 112.799 12.2877C112.521 12.2877 112.255 12.1774 112.059 11.9812C111.863 11.785 111.752 11.5188 111.752 11.2413C111.752 10.9637 111.863 10.6976 112.059 10.5014C112.255 10.3051 112.521 10.1949 112.799 10.1949C113.076 10.1949 113.343 10.3051 113.539 10.5014C113.735 10.6976 113.845 10.9637 113.845 11.2413C113.845 11.5188 113.735 11.785 113.539 11.9812ZM87.512 32.5625L87.0668 32.1116C88.3387 30.9149 89.6048 29.1169 89.8303 28.0648C89.8291 27.9633 89.8502 27.8628 89.8921 27.7704C89.934 27.678 89.9957 27.5959 90.0727 27.5299C90.1498 27.464 90.2404 27.4157 90.3381 27.3885C90.4359 27.3613 90.5384 27.3559 90.6385 27.3727C90.7385 27.3894 90.8337 27.4279 90.9173 27.4854C91.0009 27.543 91.0708 27.6181 91.1222 27.7056C91.1736 27.7931 91.2051 27.8908 91.2146 27.9918C91.2241 28.0928 91.2114 28.1947 91.1773 28.2902C90.8073 29.7124 89.1596 31.36 87.512 32.5568V32.5625ZM83.7715 6.45443L83.7812 6.46122C82.7596 7.36554 80.4214 10.3497 79.3026 12.1373L79.8808 12.6634C81.7236 11.0273 83.2246 9.04291 84.2976 6.82443L83.7812 6.46122L83.7888 6.45443H83.7715ZM68.6595 18.9997L68.3647 18.4216V18.4158C66.4325 19.3413 64.6835 20.6085 63.2021 22.1562L63.653 22.7343C65.4729 21.7059 67.1551 20.451 68.6595 18.9997ZM71.4287 11.9871L70.8506 12.7387C69.1162 11.6171 65.7631 8.62248 65.0115 7.50093L65.5376 6.97484C67.1853 7.80155 70.3245 10.6401 71.446 11.9871H71.4287ZM68.2906 40.5689L68.2894 40.5637L68.22 40.5174L68.2906 40.5689ZM68.2906 40.5689C68.3555 40.8507 68.3828 41.1452 68.4107 41.447C68.4788 42.1836 68.5509 42.9635 69.1855 43.7087C70.1916 45.0322 71.2909 46.2821 72.475 47.4491C72.2455 47.5378 71.9878 47.6397 71.7078 47.7504C69.8714 48.4764 67.0759 49.5817 64.9941 49.8425C64.4535 49.9531 63.9441 50.1821 63.5026 50.5131C63.1102 51.2859 62.8559 52.1214 62.751 52.9817C62.6759 53.7275 62.6759 54.5542 62.6759 55.3751C62.7766 57.0067 63.1826 58.6049 63.8726 60.0868C64.6993 61.6593 65.5202 62.3993 66.4915 62.856C66.9308 62.7407 67.3846 62.6901 67.8385 62.7057C68.5805 62.6933 69.3157 62.8485 69.9894 63.1598C70.6631 63.4712 71.2578 63.9305 71.7292 64.5036C71.9547 64.8736 72.475 64.9488 73.0762 64.9488C74.6735 64.8608 76.2411 64.4807 77.7012 63.8272C78.077 63.6018 78.9731 62.9311 79.8691 62.2547C80.0545 62.1148 80.4226 61.8152 80.9096 61.4188L80.9098 61.4187C82.7769 59.8989 86.3932 56.9554 88.1767 56.1209C89.7669 56.9765 91.5296 57.4626 93.3336 57.5431C93.6361 57.5841 93.9439 57.5584 94.2354 57.4679C94.3275 57.4449 94.4264 57.4198 94.5317 57.3931L94.5399 57.391L94.5403 57.3909L94.5405 57.3908L94.5406 57.3908L94.5408 57.3908L94.541 57.3907L94.5412 57.3907L94.5413 57.3906L94.5415 57.3906L94.5417 57.3905L94.5419 57.3905L94.542 57.3904L94.5422 57.3904L94.5424 57.3903L94.5426 57.3903L94.5427 57.3902L94.5429 57.3902L94.5431 57.3902C95.0977 57.2494 95.8303 57.0635 96.704 56.8898C98.2068 56.5583 99.731 56.3323 101.265 56.2134C102.913 56.2886 107.775 56.3637 108.972 56.3637C110.168 56.3637 111.862 56.2886 112.562 56.2134C114.438 55.6611 116.285 55.0128 118.094 54.2709C120.748 52.8822 123.255 51.228 125.575 49.3338C125.937 49.0488 126.265 48.7229 126.552 48.3625C126.58 48.302 126.609 48.2536 126.634 48.2126C126.67 48.1517 126.697 48.1068 126.697 48.0619C126.697 47.9867 126.622 44.8476 126.622 44.8476C126.622 44.8476 127.749 43.6508 128.194 43.1999V43.0496C127.893 41.5745 127.792 40.0655 127.894 38.5634L126.847 38.0373C126.751 40.1018 126.135 42.1084 125.055 43.8705C123.407 44.096 120.193 45.0672 119.071 46.4143L119.742 46.5646C120.805 45.9313 122.019 45.5959 123.257 45.5933C124.379 45.5933 124.905 45.894 124.905 46.1715C124.838 46.5047 124.737 46.8302 124.604 47.1427C124.533 47.3655 124.403 47.565 124.228 47.7208C122.667 49.4653 120.822 50.9333 118.771 52.0625C117.205 52.9159 115.549 53.5926 113.834 54.0801C113.122 54.2172 112.422 54.4105 111.741 54.6583C111.438 54.6583 110.686 54.6381 109.732 54.6126L109.728 54.6125L109.728 54.6125H109.728H109.728H109.728C108.076 54.5682 105.824 54.5079 104.26 54.5079C101.791 54.5079 96.704 54.8779 95.1315 55.2537C94.8698 55.3328 94.6722 55.4212 94.4902 55.5026C94.1535 55.6531 93.8702 55.7798 93.3336 55.7798C91.7669 55.7798 89.6683 54.9531 88.3964 54.3576C88.002 54.4479 87.6238 54.5981 87.2749 54.8028C86.9985 54.9419 86.6175 55.3087 86.1871 55.7232C85.222 56.6525 84.008 57.8217 83.1644 57.202C82.8587 57.8747 81.9755 58.5053 81.089 59.1384C80.2994 59.7023 79.5071 60.2681 79.1176 60.8673C79.1472 60.6392 79.328 59.8228 79.5407 58.8623C79.8672 57.388 80.2688 55.5743 80.3143 55.0282C80.3143 54.9905 80.319 54.9531 80.3238 54.9159C80.3378 54.8049 80.3517 54.6956 80.2392 54.5831C79.3431 53.0106 76.649 52.0394 75.1517 51.7387C74.9313 51.694 74.7683 51.6492 74.6053 51.6044L74.6051 51.6044C74.4946 51.574 74.3841 51.5436 74.2556 51.5133L71.8622 50.8427L69.6942 51.5133L72.238 51.9642L69.0178 54.1322C69.4166 53.9766 71.1907 53.4663 72.3252 53.1399L72.3254 53.1399L72.3256 53.1398C72.8356 52.9931 73.2162 52.8836 73.2844 52.8603C73.624 52.747 73.9912 52.747 74.3308 52.8603C74.4848 52.9048 74.7046 52.9624 74.9592 53.0292L74.9605 53.0296L74.9607 53.0296C75.5662 53.1884 76.3681 53.3987 76.9496 53.6061C77.5436 53.9428 78.0351 54.4343 78.3718 55.0282C78.4592 55.5228 78.5075 56.0235 78.5163 56.5256C78.5135 57.181 78.4398 57.8342 78.2967 58.4738C77.9924 59.6003 77.5394 60.6813 76.9496 61.6882C76.8442 61.9216 76.6893 62.1294 76.4956 62.2971C76.302 62.4648 76.0742 62.5884 75.8281 62.6594C75.0529 63.0172 74.213 63.2139 73.3595 63.2375C72.6831 63.2375 72.238 63.1624 71.9374 62.7866C71.326 62.0378 70.523 61.4687 69.614 61.1399C68.7049 60.8111 67.7237 60.7348 66.7747 60.9193C65.4277 60.0926 64.0807 57.4506 64.0807 55.3809C64.1946 53.919 64.5218 52.4816 65.0519 51.1144C67.2257 50.8195 71.6367 49.1719 73.7237 48.2238C73.8971 48.2238 74.1935 48.1571 74.5584 48.0751C75.1426 47.9437 75.9026 47.7728 76.6143 47.7728C79.4587 47.7728 82.2972 50.2414 84.02 51.9642C84.2536 51.5672 84.5947 51.2442 85.0038 51.0325C85.4129 50.8208 85.8735 50.7289 86.3325 50.7675C88.3502 50.7675 89.5469 52.6348 90.073 54.5079L91.1194 53.7564C90.9069 52.5809 90.3611 51.4913 89.5469 50.6172C88.7039 49.8509 87.6207 49.4013 86.4828 49.3453C86.1165 49.3453 85.7708 49.3902 85.4572 49.4309C85.1967 49.4647 84.9583 49.4956 84.7485 49.4956C83.6072 49.4956 82.9951 49.0565 82.2136 48.4957L82.2135 48.4956C82.0252 48.3605 81.8271 48.2183 81.6093 48.0735C80.4877 47.3277 78.3198 46.131 76.7473 46.131C76.2413 46.131 75.8765 46.2314 75.527 46.3276C75.2057 46.4161 74.8974 46.501 74.5042 46.501C74.0647 46.5345 73.6251 46.4391 73.239 46.2266C72.8529 46.014 72.5372 45.6935 72.3305 45.3043C71.6989 44.7421 71.1005 44.1437 70.5383 43.5121C70.2432 42.9413 70.0162 42.3379 69.8619 41.7141L68.2906 40.5689ZM69.9314 41.7603C70.0534 41.8824 70.1676 42.0039 70.2816 42.1251C70.5183 42.3771 70.7543 42.6282 71.0587 42.8819C71.3174 43.0974 71.5989 43.2559 71.8759 43.4119L71.876 43.4119C72.0819 43.5278 72.2853 43.6424 72.4751 43.7779C72.7235 43.9021 72.9795 44.0346 73.2376 44.1681L73.2376 44.1681L73.2378 44.1682C73.7606 44.4386 74.2922 44.7136 74.7876 44.9342C75.6001 45.0823 76.4244 45.1558 77.2503 45.1539C77.4998 45.1539 77.7585 45.1444 78.0225 45.1347H78.0226H78.0227H78.0229H78.023H78.0231H78.0232H78.0233H78.0234H78.0235H78.0236H78.0238H78.0239H78.024H78.0241H78.0242C79.0323 45.0977 80.118 45.058 81.0659 45.5296C81.4985 45.6869 81.7048 46.0073 81.8992 46.3093C82.0763 46.5844 82.2436 46.8443 82.5633 46.9518C83.5345 47.3276 86.2285 47.4027 87.7259 47.4027C90.4641 47.4062 93.1956 47.1292 95.8774 46.576L94.9813 45.5296C92.6527 45.8881 90.3056 46.1139 87.9513 46.206C85.4828 46.206 83.0894 45.7551 83.0894 44.7839C83.0894 44.0323 83.8351 42.9859 85.3325 42.9859C86.6436 42.9859 88.6994 43.7306 89.4893 44.0167L89.4899 44.0169L89.4903 44.0171L89.4909 44.0173C89.6023 44.0577 89.6884 44.0889 89.7435 44.1075C89.8912 44.1562 90.0471 44.1747 90.2021 44.1618C90.3571 44.1489 90.5078 44.1048 90.6454 44.0323L91.5415 43.5872C90.3448 43.009 86.0782 41.5637 84.604 41.5637C84.305 41.5203 83.9998 41.5605 83.7223 41.6799C83.4447 41.7993 83.2056 41.9932 83.0315 42.2401C82.5054 42.9859 80.9388 43.6623 78.5396 43.6623C77.3047 43.65 76.0752 43.4987 74.8743 43.2114C73.7927 42.7211 72.7657 42.1185 71.8102 41.4134C70.6556 40.6621 69.671 39.6774 68.9196 38.5228C68.6883 38.2222 68.5587 37.8557 68.5496 37.4764C68.5496 37.3153 68.5912 37.1758 68.6297 37.0463C68.663 36.9342 68.6942 36.8295 68.6942 36.7249C68.9057 37.0116 69.159 37.2649 69.4457 37.4764C70.8585 38.8005 72.6263 39.6844 74.5332 40.0202C75.0687 40.1641 75.6206 40.2379 76.175 40.2398C76.9578 40.1957 77.7004 39.8786 78.2736 39.3438L77.4122 38.3783C77.0675 38.4437 76.7163 38.4689 76.3658 38.4535C73.5273 38.4535 69.9314 36.6555 69.1104 34.4875C69.0887 34.4222 69.0606 34.3695 69.0353 34.3221C68.9734 34.2059 68.9285 34.1216 69.0353 33.9615C69.1278 33.642 69.2031 33.3178 69.2607 32.9902C69.3921 33.1216 69.6959 33.3679 70.0174 33.6287L70.1568 33.7418C70.7631 34.1303 71.6972 34.5945 72.4624 34.9747L72.4625 34.9748L72.4627 34.9749C73.0182 35.2509 73.4846 35.4827 73.6718 35.6091C74.4693 35.353 75.243 35.028 75.9843 34.6379C76.7005 34.2702 77.4918 34.0724 78.2967 34.0597C80.3773 34.0597 82.755 35.2425 84.9867 36.3526L85.0261 36.3722L86.5234 35.7941C84.5057 34.3719 80.2392 32.4294 77.8516 32.4294C77.0729 32.4294 76.3168 32.7431 75.6325 33.027C75.067 33.2616 74.5506 33.4758 74.1112 33.4758C72.9896 33.4758 69.7001 31.8282 69.7001 30.4812C69.7001 29.4348 71.7929 28.8393 75.3079 28.4635C74.7297 29.2845 74.1111 30.2557 73.5735 31.1576L74.4754 31.6779C79.8577 23.827 85.5464 18.7396 90.258 15.5946C91.4643 14.9267 92.4126 13.8747 92.9521 12.6057C94.4494 9.53591 95.8427 7.29281 98.2592 7.29281C98.7785 7.31146 99.2877 7.44137 99.7525 7.67375C100.217 7.90613 100.627 8.23558 100.953 8.63982L102.688 9.16591L100.89 10.3626L102.688 11.1084C101.158 11.6264 99.7549 12.4603 98.5687 13.5559C97.3825 14.6515 96.4399 15.9842 95.8022 17.4677C93.3336 17.5429 92.1369 19.6357 91.316 21.2833C90.7817 22.3892 90.0203 22.8533 88.8448 23.5698C88.7483 23.6287 88.649 23.6892 88.5468 23.7519L78.3199 30.9148L79.7363 31.1402L89.2406 24.7809C91.1079 23.5091 92.0098 22.5378 92.4549 21.7111C93.2816 19.9189 94.2529 18.5719 96.1202 18.5719C97.1336 18.6309 98.091 19.0562 98.8142 19.7686L100.462 20.2947L98.6639 21.4163L100.161 22.3123C95.8195 23.6594 93.1313 26.7986 91.5588 32.7821L92.6804 33.0076C93.1892 31.1346 93.9168 29.328 94.8483 27.6253C96.1202 27.6253 97.392 27.6065 98.6639 27.5877C99.9358 27.5689 101.208 27.5501 102.479 27.5501C109.134 27.5501 114.663 27.8445 117.66 28.6697L117.661 28.6717C118.855 30.5563 120.18 32.3548 121.627 34.054L120.436 36.7336L120.369 36.645L120.19 36.4102L120.186 36.4049C119.437 35.4226 117.67 33.1061 117.152 32.2618C116.557 31.2906 115.655 30.2384 114.308 30.2384C112.591 30.2384 111.989 32.0999 111.914 33.8343L113.042 33.3082C113.261 32.2618 113.787 31.7357 114.308 31.7357C114.523 31.7795 114.719 31.8903 114.868 32.0523C115.016 32.2143 115.109 32.4192 115.134 32.6376C114.833 33.3268 114.638 34.0578 114.556 34.8055L115.603 35.1755C115.6 34.4617 115.8 33.7619 116.181 33.1579C116.34 33.2759 116.469 33.4305 116.557 33.6088C116.577 33.6505 116.64 33.7438 116.732 33.8807C116.972 34.2376 117.411 34.8911 117.828 35.7016C118.146 36.2197 118.47 36.8233 118.791 37.4212L118.792 37.4213C119.072 37.9443 119.351 38.4628 119.621 38.9159L119.621 38.9164L119.621 38.9164C119.921 39.3672 120.222 39.8179 120.447 40.1127C120.638 40.4791 120.921 40.7898 121.268 41.0145C121.497 41.1359 121.756 41.1881 122.014 41.1648C122.299 41.1729 122.581 41.1162 122.841 40.999C123.1 40.8818 123.329 40.7072 123.511 40.4884C124.436 39.612 125.287 38.6607 126.055 37.6441C126.092 37.6814 126.185 37.7186 126.323 37.7742L126.323 37.7742C126.464 37.8307 126.652 37.9062 126.876 38.0199L127.922 38.546C128.543 38.7895 129.211 39.0882 129.806 39.3541C129.931 39.4102 130.054 39.4648 130.171 39.5172C131.872 41.4045 133.668 43.2029 135.554 44.9053L138.542 62.7634C138.768 64.3359 139.965 64.4862 140.71 63.6595C141.146 63.2554 141.536 62.8043 141.889 62.3969C142.319 61.9007 142.693 61.4692 143.023 61.2661C143.427 61.0175 143.998 61.069 144.669 61.1296C144.997 61.1591 145.349 61.1909 145.717 61.1909C146.838 61.1909 147.515 60.9712 146.838 59.0981L144.382 51.8782C146.685 53.4443 148.843 54.7852 150.856 55.9011C150.631 55.375 150.405 54.7044 150.18 54.028C147.191 47.212 140.606 32.3254 135.224 24.5439L134.397 23.3472C133.203 21.7984 131.909 20.3289 130.524 18.9477L130.524 18.9476C132.172 17.8335 133.581 16.402 134.669 14.7368C135.762 13.0658 136.508 11.1933 136.866 9.22937L138.664 9.45484C137.912 10.877 137.092 13.045 137.016 14.4672C137.092 15.4384 137.242 15.5887 137.762 15.9645C138.664 16.6351 139.705 16.1957 140.907 15.2187C141.834 14.4654 142.71 13.2721 143.611 12.0444L143.611 12.0441C143.878 11.6796 144.148 11.3121 144.422 10.9522L145.995 12.2992C144.046 13.4959 143.468 14.7678 144.046 15.5887C144.216 15.796 144.435 15.9576 144.684 16.0585C144.932 16.1595 145.202 16.1967 145.468 16.1668C146.179 16.1674 146.885 16.0662 147.567 15.8662C147.864 15.7913 148.166 15.6977 148.467 15.6047C148.769 15.5112 149.069 15.4184 149.359 15.3459V17.3635C144.873 17.7393 137.242 19.5315 134.397 23.3471L135.236 24.5553C135.514 24.1657 135.813 23.7913 136.132 23.4338C139.552 23.4533 142.927 24.2229 146.018 25.6884L146.596 21.5029C145.312 21.2774 143.295 20.9016 142.549 19.9304C145.148 19.1535 147.838 18.7258 150.55 18.6585V13.4959C149.661 14.0411 148.705 14.4687 147.706 14.7678C146.509 15.1435 145.393 15.369 145.093 14.7678C144.792 14.1665 146.422 13.1201 148.157 12.224L144.266 9.08484C143.289 10.6217 142.215 12.095 141.052 13.4959C140.08 14.4671 139.103 15.1435 138.583 14.7678C138.282 14.5307 138.282 13.8601 138.508 13.0334C139.075 11.3829 139.881 9.82457 140.901 8.40845L135.664 7.9633C135.664 10.0561 134.623 12.4495 133.351 14.392C132.353 15.8677 131.028 17.0928 129.479 17.9717L129.478 17.9707C126.934 15.5021 124.095 13.0335 121.846 11.2414C121.357 10.8289 120.897 10.2777 120.407 9.68889C119.027 8.03263 117.4 6.07875 114.146 6.07875C110.105 6.07875 108.758 8.77279 108.307 10.4146C108.191 11.0488 107.964 11.6575 107.636 12.2126L105.092 15.2073L108.087 14.9818L106.59 17.4504C106.649 17.4407 106.732 17.4262 106.835 17.4082C108.148 17.1774 112.73 16.3727 113.77 17.8955C114.309 18.7855 114.459 19.7035 114.64 20.8185L114.64 20.8185C114.887 22.3325 115.193 24.2096 116.614 26.8725C113.394 26.2953 108.759 26.0528 102.479 26.0528C101.396 26.0528 100.332 26.0715 99.2667 26.0903L99.2666 26.0903H99.2664H99.2663H99.2662H99.2661H99.266H99.266H99.2659H99.2658H99.2658H99.2657H99.2657H99.2656H99.2655H99.2655H99.2654C98.1992 26.1091 97.1322 26.1279 96.045 26.1279C97.8424 24.3937 100.06 23.1565 102.479 22.5378L100.288 21.3411L102.682 19.9941L99.3923 18.7974C98.7945 18.1868 98.0438 17.7476 97.2186 17.5255C98.265 14.3054 101.844 12.4381 105.312 11.1662L102.919 10.195L105.312 8.84795L101.572 7.65124C101.185 7.12576 100.678 6.7015 100.092 6.41462C99.5058 6.12773 98.8593 5.98671 98.2072 6.00359C94.9334 6.00359 93.5032 8.67115 92.162 11.1727C92.0821 11.3216 92.0026 11.47 91.923 11.6171C91.4691 12.8067 90.6254 13.8073 89.5296 14.4557C86.1722 16.705 83.0705 19.3143 80.2797 22.2372C78.632 21.0405 75.1171 17.4504 74.221 15.5021C73.9087 15.9668 73.658 16.4701 73.4752 16.9994C73.5101 17.0348 73.5776 17.1028 73.6725 17.1984L73.6725 17.1984L73.6726 17.1985L73.6726 17.1986C74.5848 18.1174 78.0275 21.5853 79.3836 23.2084C79.2655 23.3183 79.1642 23.4449 79.083 23.5842C77.4353 23.8848 73.2498 24.33 71.8276 24.1045L71.0818 25.5267C71.4801 25.4981 72.3223 25.4075 73.3109 25.3012L73.3111 25.3011C74.9199 25.1281 76.9164 24.9134 78.0192 24.8561C77.5978 25.3192 77.1801 25.8565 76.7602 26.3966L76.76 26.3969L76.7598 26.3971C76.6556 26.5311 76.5513 26.6653 76.4468 26.7986C71.0645 27.3767 67.5437 28.5329 67.5437 30.4638C67.5437 30.6063 67.5606 30.7657 67.5784 30.9334L67.5784 30.9334C67.5981 31.1194 67.6189 31.3156 67.6189 31.5102C67.6456 31.8223 67.5735 32.1349 67.4126 32.4036C67.2518 32.6724 67.0104 32.8837 66.7228 33.0076C66.347 33.233 66.347 33.4585 66.4973 33.684C66.8759 34.1969 67.2014 34.747 67.4686 35.3258C67.3829 35.7877 67.1471 36.2083 66.7979 36.5225C66.4973 36.8232 66.4973 36.8983 66.7228 37.2741L68.2953 40.5636L69.9371 41.7603H69.9314ZM143.11 50.9827L143.098 50.9466L144.37 51.8427L144.382 51.8782L144.347 51.8543L143.11 50.9827ZM140.633 49.1795L143.075 50.9582L143.11 50.9827L145.717 59.0403C145.867 59.7167 145.74 60.0115 144.671 60.0115C143.601 60.0115 143.248 59.7167 143.023 58.8148L140.633 49.1795ZM139.286 48.0609L139.282 48.0445L140.629 49.166L140.633 49.1795L140.606 49.1602L139.286 48.0609ZM139.286 48.0609L141.751 59.4912C142.036 60.4305 141.828 60.7083 141.348 61.3491C141.293 61.4222 141.234 61.5 141.173 61.584C140.572 62.405 139.751 62.5553 139.6 61.584L136.866 46.0962C137.617 46.7668 138.438 47.4606 139.259 48.0387L139.286 48.0609ZM121.259 37.7831L121.251 37.8002L120.43 36.7538V36.748L120.436 36.7336L120.447 36.748L121.259 37.7831ZM121.259 37.7831L121.268 37.7944C121.368 38.2546 121.565 38.6882 121.846 39.0663C122.147 39.5172 122.424 39.5172 122.893 39.0663C123.425 38.655 123.925 38.2047 124.39 37.7192C124.85 37.2269 125.275 36.7034 125.662 36.1525C125.968 36.269 126.455 36.4927 126.979 36.7332L126.98 36.7337L126.98 36.7337C127.443 36.9467 127.935 37.1728 128.356 37.3492C124.39 32.4121 120.499 26.4286 118.857 22.3875C118.181 20.6531 119.528 20.1444 120.129 21.8094C121.922 26.3014 127.067 34.3026 130.9 38.4939C135.241 43.2808 143.243 50.3107 148.48 53.0799C147.957 52.0368 147.321 50.7047 146.583 49.158L146.582 49.1569L146.581 49.1548L146.581 49.1542L146.58 49.153C146.26 48.4809 145.919 47.7682 145.561 47.0212C139.202 43.4311 132.842 36.8463 129.853 31.1634L131.125 31.3137C133.894 36.2508 140.549 42.8298 144.514 44.7029C140.924 37.0717 136.213 27.4229 132.623 23.3125C128.942 19.2804 124.965 15.5295 120.725 12.0912C120.089 11.5156 119.554 10.9067 119.044 10.3265C117.7 8.79703 116.531 7.46623 114.146 7.46623C111.377 7.46623 109.879 9.48388 109.353 11.4321C109.252 11.7993 109.103 12.1512 108.908 12.4785L107.561 14.051L110.405 13.7504L108.758 15.9935C108.758 15.9935 113.169 15.0223 114.741 17.1151C115.48 18.1214 115.673 19.1882 115.912 20.514C116.205 22.1433 116.57 24.1636 118.106 26.9431C119.568 29.4179 121.273 31.7418 123.193 33.8805L121.259 37.7831ZM145.035 24.0292C142.66 22.9374 140.091 22.3282 137.479 22.2371C138.588 21.4775 139.796 20.8726 141.069 20.4391C141.89 21.4161 143.763 22.2371 145.255 22.4625L145.035 24.0292ZM76.2155 36.9735L76.8919 37.4244L76.8861 37.4475C77.5347 37.1237 78.2545 36.9686 78.9789 36.9966C79.5996 36.9729 80.2103 37.1581 80.7133 37.5227C80.8616 37.6332 80.9924 37.7452 81.1241 37.858C81.254 37.9693 81.3848 38.0813 81.5342 38.1933C81.6417 38.2559 81.7297 38.3472 81.7883 38.457C81.8469 38.5667 81.8738 38.6906 81.866 38.8148C81.8582 38.939 81.816 39.0586 81.7442 39.1602C81.6723 39.2618 81.5735 39.3413 81.459 39.39C81.374 39.4532 81.2997 39.5222 81.2121 39.6035L81.2121 39.6035L81.212 39.6036L81.2119 39.6037L81.2117 39.6038L81.2117 39.6039C81.0672 39.738 80.8867 39.9055 80.563 40.1358C80.2292 40.3397 79.8793 40.5156 79.5166 40.6619C79.2141 40.8261 78.882 40.9283 78.5395 40.9625C78.3006 40.9448 78.07 40.8672 77.8689 40.737L76.5219 41.5579C77.0025 41.8941 77.5847 42.0535 78.1695 42.0089C79.0167 41.9781 79.852 41.8001 80.6381 41.4828C81.6155 41.0192 82.5635 40.496 83.4767 39.9161C84.2532 39.3969 85.1617 39.1101 86.0956 39.0894C86.804 39.0894 87.5088 39.414 88.2858 39.7718L88.2858 39.7718L88.2858 39.7718L88.2859 39.7719L88.2859 39.7719C88.498 39.8696 88.7155 39.9697 88.9399 40.0664C90.2065 40.7651 91.6124 41.1738 93.0561 41.2631C93.9653 41.2384 94.8689 41.1123 95.7501 40.8873C97.578 40.5187 99.3768 40.0183 101.132 39.39L100.554 38.3436C99.3771 38.7155 98.1781 39.0147 96.9642 39.2397C95.8265 39.5305 94.666 39.7239 93.4955 39.8178C92.8669 39.8083 92.241 39.7327 91.6282 39.5923C90.6569 39.2917 89.6799 38.9159 89.6799 38.095C89.6752 37.8038 89.7692 37.5196 89.9466 37.2886C90.124 37.0577 90.3743 36.8936 90.6569 36.8231C91.6473 36.425 93.1019 36.437 94.1014 36.4452H94.1019H94.1024H94.1028H94.1033H94.1037C94.2352 36.4463 94.3589 36.4474 94.4725 36.4474C94.617 36.2277 95.2934 35.401 95.2934 35.401C94.5537 35.261 93.8032 35.1856 93.0503 35.1755C92.002 35.1414 90.9577 35.3204 89.9805 35.7016C89.1889 35.979 88.5078 36.504 88.038 37.1989L88.0084 37.2385C87.7989 37.5186 87.6489 37.7192 87.3616 37.7192C87.1838 37.7192 86.9378 37.657 86.6476 37.5835C86.2305 37.4779 85.7222 37.3492 85.1937 37.3492C84.984 37.3492 84.8072 37.3706 84.6422 37.3906C84.4979 37.408 84.3627 37.4244 84.2224 37.4244C83.3264 37.4244 82.199 36.8231 81.2278 36.3028C80.6331 35.8903 79.9333 35.6557 79.2101 35.6264C78.826 35.6357 78.4465 35.712 78.0886 35.8519C77.4169 36.1403 76.7869 36.5175 76.2155 36.9735ZM95.8889 37.9449C95.5457 37.8461 95.196 37.7708 94.8425 37.7195C95.3419 37.0459 95.9494 36.4599 96.6405 35.9851C97.8302 35.1626 99.241 34.7192 100.687 34.7133C101.331 34.6228 101.98 34.5725 102.63 34.5629C102.831 34.5917 103.076 34.6095 103.343 34.6288L103.343 34.6288C103.773 34.6601 104.262 34.6956 104.723 34.7884C105.018 34.8307 105.312 34.8966 105.593 34.9597C105.812 35.0088 106.022 35.0561 106.22 35.089C106.691 35.1585 107.171 35.1585 107.642 35.089C108.865 34.8956 110.05 34.5154 111.157 33.9617L111.458 35.1584C109.81 36.0603 107.943 36.8928 106.145 36.8928C105.324 36.8928 104.353 36.8176 103.451 36.7425C102.754 36.6725 102.091 36.5863 101.536 36.5141L101.536 36.5141L101.536 36.5141C100.898 36.4311 100.402 36.3667 100.161 36.3667C98.6108 36.4377 97.1204 36.987 95.8947 37.9392L95.8889 37.9449ZM93.1254 43.853L94.6922 44.6045L94.6575 44.6335C96.5029 43.4227 98.6594 42.7721 100.866 42.7603C102.589 42.7603 103.208 42.8355 103.786 43.8819C103.918 44.212 104.145 44.4955 104.438 44.6962C104.732 44.897 105.078 45.0059 105.434 45.0092C106.008 44.9826 106.568 44.8285 107.075 44.5583C107.328 44.4289 107.626 44.2772 107.947 44.1145C108.772 43.6956 109.742 43.2028 110.446 42.8239C110.865 42.6362 111.532 42.3114 112.156 42.0076C112.761 41.7128 113.326 41.4377 113.585 41.3266C113.297 42.0219 112.92 42.6769 112.464 43.2749C112.315 43.5331 112.119 43.7608 111.885 43.9455C111.447 44.3825 110.973 44.7828 110.469 45.1422C109.246 46.0608 107.972 46.9101 106.653 47.6859L107.023 48.5126C107.894 48.1078 108.743 47.6582 109.567 47.1656C110.571 46.6171 111.545 46.017 112.487 45.3677C113.108 44.9213 113.689 44.4202 114.221 43.8703C114.426 43.5911 114.6 43.2907 114.741 42.9743C115.227 41.8931 115.603 40.7659 115.863 39.6096L115.042 39.1587C114.978 39.1587 113.695 39.7599 113.244 39.9854L112.864 40.1632L112.864 40.1634L112.864 40.1635L112.864 40.1635L112.863 40.1637C111.701 40.7084 110.511 41.2663 110.105 41.4018C109.784 41.5086 109.315 41.7294 108.775 41.9831L108.775 41.9831L108.774 41.9837C108.555 42.0868 108.324 42.1952 108.087 42.3036C107.495 42.5874 106.863 42.7822 106.214 42.8818C105.093 42.8818 104.272 41.8354 103.821 40.789C102.564 41.0905 101.289 41.3145 100.005 41.4596C97.6308 42.002 95.3237 42.8046 93.1254 43.853ZM103.896 39.6675C103.896 39.6675 103.67 38.7715 103.52 38.3957C103.742 38.3459 103.969 38.3207 104.197 38.3205C104.447 38.3205 104.925 38.3554 105.42 38.3916C105.952 38.4305 106.504 38.4708 106.815 38.4708C109.058 38.4708 109.879 37.7944 110.556 37.199C110.909 36.8554 111.332 36.591 111.795 36.4236C112.259 36.2561 112.753 36.1893 113.244 36.2277C114.404 36.2655 115.547 36.5184 116.615 36.9735L116.539 38.2454C115.8 37.862 114.979 37.6636 114.146 37.6672C113.66 37.6186 113.171 37.6963 112.724 37.8927C112.356 38.1434 112.006 38.4196 111.677 38.7194C111.173 39.0934 110.618 39.395 110.03 39.6155C109.098 39.9666 108.104 40.1201 107.11 40.0664C106.028 40.0562 104.951 39.9302 103.896 39.6907V39.6675ZM89.5949 48.9906L89.5354 49.0159L89.547 48.9638L89.5949 48.9906ZM89.5949 48.9906L90.5818 48.5707C91.625 49.0255 92.7368 49.3029 93.8713 49.3917C94.3663 49.3667 94.8507 49.2387 95.2935 49.0159C95.5941 48.8656 99.1091 47.1486 100.826 46.5473C101.254 46.3697 101.71 46.268 102.173 46.2467C102.559 46.2467 102.615 46.3567 102.702 46.5296C102.717 46.5588 102.733 46.5899 102.751 46.6225C103.052 47.1486 105.642 50.8138 105.89 51.0393C108.064 50.3629 110.307 49.3917 111.579 48.195C112.363 47.4571 113.119 46.5765 113.846 45.7291L113.846 45.7291L113.846 45.729C114.298 45.202 114.739 44.6879 115.169 44.229C115.497 43.8554 115.874 43.5286 116.291 43.2578C117.412 42.6797 120.916 42.5814 122.349 42.6797L121.529 43.8764C118.91 43.8764 117.482 44.177 116.811 44.6279C116.432 44.9991 116.082 45.3993 115.765 45.8247C115.367 46.3226 114.954 46.9094 114.585 47.4338L114.585 47.4338L114.585 47.434C114.124 48.0907 113.731 48.6496 113.522 48.8135C114.369 49.459 115.411 49.7956 116.476 49.7674C118.644 49.7674 120.216 48.4204 121.037 47.6689L121.783 48.0446C121.253 48.8 120.596 49.4573 119.84 49.9871C119.034 50.5187 118.151 50.9224 117.222 51.1838C116.665 51.0877 115.82 50.9185 114.991 50.7522C113.925 50.5386 112.884 50.33 112.51 50.2877C110.116 51.259 106.151 52.8315 104.879 53.1783C104.59 53.2775 104.288 53.3283 103.983 53.3286C102.712 53.4041 101.438 53.4041 100.167 53.3286C99.4185 53.3497 98.6694 53.3246 97.9239 53.2535L96.7272 52.0568C97.5111 52.2399 98.3163 52.3158 99.1206 52.2822C100.528 52.2801 101.931 52.1289 103.306 51.8313C103.757 51.681 103.832 51.4556 103.682 51.0856C103.432 50.4534 103.078 49.8673 102.636 49.3512C102.283 49.0033 101.909 48.6788 101.514 48.3799C101.213 48.1545 100.936 48.0793 100.017 48.3799C98.5526 49.013 97.1296 49.737 95.756 50.5479C95.1747 50.8387 94.5031 50.8926 93.8829 50.6982C92.3861 50.3153 90.945 49.7414 89.5949 48.9906ZM96.3398 21.7865C96.5726 21.7715 96.7919 21.6723 96.9568 21.5074C97.1217 21.3424 97.2209 21.1231 97.2359 20.8904C97.2344 20.6532 97.1395 20.4262 96.9718 20.2584C96.804 20.0907 96.577 19.9958 96.3398 19.9943C96.2208 19.9894 96.1021 20.0092 95.9912 20.0525C95.8802 20.0958 95.7795 20.1617 95.6953 20.2459C95.6111 20.3301 95.5453 20.4308 95.502 20.5418C95.4587 20.6527 95.4388 20.7714 95.4437 20.8904C95.4452 21.1276 95.5401 21.3546 95.7079 21.5223C95.8756 21.69 96.1026 21.7849 96.3398 21.7865ZM129.814 72.5669C130.065 72.8043 130.214 73.1304 130.229 73.476V93.5252C130.214 93.8707 130.065 94.1968 129.814 94.4343C129.562 94.6718 129.228 94.8019 128.882 94.797H127.009C126.842 94.7986 126.676 94.7667 126.521 94.7034C126.366 94.64 126.225 94.5464 126.106 94.428C125.988 94.3096 125.894 94.1687 125.831 94.0137C125.768 93.8587 125.736 93.6926 125.737 93.5252L125.662 73.476C125.677 73.1304 125.826 72.8043 126.078 72.5669C126.329 72.3294 126.663 72.1993 127.009 72.2041H128.882C129.228 72.1993 129.562 72.3294 129.814 72.5669ZM132.623 74.0773V74.9734C132.616 75.0733 132.631 75.1736 132.666 75.2674C132.701 75.3613 132.755 75.4466 132.826 75.5177C132.896 75.5888 132.981 75.644 133.075 75.6798C133.168 75.7155 133.269 75.7309 133.369 75.7249H146.538C146.839 75.7159 147.124 75.5901 147.333 75.3742C147.543 75.1584 147.66 74.8694 147.66 74.5687V73.002C147.659 72.8563 147.629 72.7121 147.572 72.578C147.515 72.4439 147.432 72.3224 147.328 72.2208C147.223 72.1191 147.1 72.0391 146.964 71.9857C146.829 71.9322 146.684 71.9063 146.538 71.9093C146.538 71.9093 133.819 73.1812 133.374 73.2563C133.271 73.2584 133.168 73.2816 133.074 73.3246C132.979 73.3676 132.894 73.4293 132.825 73.5062C132.755 73.583 132.701 73.6733 132.668 73.7715C132.634 73.8697 132.621 73.9738 132.629 74.0773H132.623ZM119.878 94.4497C120.529 94.7034 121.224 94.8215 121.922 94.797H123.72C123.975 94.7911 124.219 94.6869 124.4 94.506C124.581 94.3251 124.685 94.0815 124.691 93.8257V92.4035C124.695 92.2749 124.673 92.1468 124.625 92.0272C124.578 91.9075 124.506 91.7988 124.415 91.7078C124.324 91.6168 124.216 91.5455 124.096 91.4981C123.976 91.4507 123.848 91.4283 123.72 91.4323H123.419C123.089 91.4554 122.758 91.4075 122.448 91.2916C122.138 91.1757 121.856 90.9947 121.622 90.7607C121.388 90.5266 121.207 90.2451 121.091 89.9351C120.975 89.6251 120.927 89.2939 120.95 88.9637V81.558H123.87C124.106 81.5536 124.332 81.4577 124.499 81.2906C124.666 81.1236 124.762 80.8982 124.766 80.6619V79.3149C124.771 79.1957 124.751 79.0767 124.708 78.9655C124.665 78.8543 124.599 78.7532 124.515 78.6685C124.431 78.5839 124.33 78.5175 124.219 78.4735C124.108 78.4296 123.989 78.409 123.87 78.413H120.95V73.4759C120.957 73.1496 120.835 72.8337 120.611 72.596C120.388 72.3583 120.08 72.2176 119.754 72.204H117.886C117.719 72.2025 117.553 72.2343 117.398 72.2977C117.243 72.3611 117.102 72.4547 116.984 72.5731C116.865 72.6915 116.772 72.8324 116.708 72.9874C116.645 73.1424 116.613 73.3084 116.615 73.4759V78.413H115.638C115.4 78.4175 115.174 78.5142 115.007 78.6825C114.84 78.8508 114.744 79.0776 114.741 79.3149V80.6619C114.759 80.8938 114.859 81.1118 115.023 81.2762C115.188 81.4407 115.406 81.5407 115.638 81.558H116.615V89.5592C116.599 90.2571 116.726 90.9509 116.989 91.5979C117.251 92.2449 117.642 92.8316 118.139 93.322C118.636 93.8124 119.228 94.1961 119.878 94.4497ZM99.479 86.3622C99.479 82.0957 96.9411 77.8349 91.1772 77.8349C85.8701 77.8349 82.9506 82.0263 82.9506 86.3622C82.9506 90.9871 86.0898 95.1149 91.2524 95.1149C94.7674 95.1149 98.1898 93.317 98.8836 90.2529C98.9015 90.1398 98.8961 90.0242 98.8679 89.9131C98.8396 89.8021 98.7891 89.698 98.7193 89.6071C98.6495 89.5162 98.562 89.4405 98.462 89.3846C98.3621 89.3286 98.2517 89.2936 98.1378 89.2817H95.5941C95.3835 89.2736 95.1748 89.3231 94.9903 89.425C94.8059 89.5269 94.6529 89.6772 94.5477 89.8598C94.1785 90.3816 93.6818 90.8002 93.1049 91.0754C92.528 91.3507 91.8902 91.4736 91.2524 91.4323C90.2572 91.4382 89.2979 91.0608 88.5734 90.3783C87.849 89.6959 87.4151 88.7608 87.3617 87.767H98.0626C98.2534 87.7912 98.4471 87.7716 98.6292 87.7097C98.8112 87.6478 98.9768 87.5453 99.1133 87.4099C99.2498 87.2745 99.3537 87.1098 99.4171 86.9282C99.4804 86.7467 99.5016 86.5531 99.479 86.3622ZM87.4368 84.5642C87.535 83.6471 87.9739 82.8003 88.6665 82.1912C89.3591 81.582 90.2551 81.255 91.1772 81.2747C92.1165 81.2499 93.0321 81.5713 93.7495 82.178C94.467 82.7846 94.9363 83.6339 95.068 84.5642H87.4368ZM139.803 77.8349C145.561 77.8349 148.105 82.0957 148.105 86.3622L148.116 86.3448C148.142 86.5377 148.123 86.7338 148.061 86.9181C147.998 87.1023 147.894 87.2697 147.757 87.4073C147.619 87.5448 147.452 87.6488 147.267 87.7112C147.083 87.7736 146.887 87.7927 146.694 87.767H135.999C136.048 88.7493 136.47 89.6759 137.179 90.3573C137.888 91.0386 138.831 91.4232 139.815 91.4323C140.463 91.4824 141.114 91.364 141.704 91.0884C142.293 90.8129 142.801 90.3897 143.179 89.8598C143.287 89.6798 143.441 89.5315 143.625 89.4299C143.808 89.3284 144.016 89.2773 144.226 89.2817H146.758C146.872 89.2929 146.983 89.3274 147.084 89.383C147.184 89.4386 147.273 89.5142 147.343 89.6052C147.413 89.6961 147.464 89.8005 147.493 89.9119C147.522 90.0233 147.527 90.1393 147.509 90.2529C146.816 93.317 143.393 95.1149 139.878 95.1149C134.715 95.1149 131.571 90.9871 131.571 86.3622C131.571 82.0263 134.49 77.8349 139.803 77.8349ZM137.338 82.2177C136.644 82.8206 136.191 83.6539 136.063 84.5642H143.619C143.49 83.6539 143.037 82.8206 142.343 82.2177C141.648 81.6148 140.76 81.2828 139.841 81.2828C138.921 81.2828 138.033 81.6148 137.338 82.2177ZM113.007 72.4298H78.4644C78.0872 72.4298 77.7255 72.5797 77.4588 72.8464C77.1921 73.1131 77.0422 73.4748 77.0422 73.852L77.1174 87.4667C77.1174 87.4667 69.7117 74.0023 69.3359 73.3317C69.107 72.9411 68.779 72.6178 68.3852 72.3944C67.9913 72.1711 67.5455 72.0557 67.0928 72.0599H64.2484C63.8723 72.0599 63.5114 72.2089 63.2448 72.4743C62.9783 72.7398 62.8278 73.1001 62.8263 73.4762V93.3751C62.8198 93.5636 62.8522 93.7514 62.9214 93.9269C62.9906 94.1024 63.0951 94.2617 63.2285 94.3951C63.3618 94.5285 63.5212 94.633 63.6967 94.7022C63.8721 94.7714 64.0599 94.8037 64.2484 94.7973H66.0464C66.2346 94.8038 66.4222 94.7714 66.5974 94.7022C66.7725 94.6329 66.9316 94.5283 67.0645 94.3948C67.1974 94.2614 67.3014 94.1019 67.3699 93.9265C67.4384 93.751 67.47 93.5633 67.4628 93.3751L67.3934 79.4656C67.3934 79.4656 74.8685 93.0051 75.2443 93.5254C75.4445 93.9239 75.7557 94.256 76.1404 94.4816C76.525 94.7073 76.9667 94.8169 77.4122 94.7973H80.0542C80.243 94.8046 80.4312 94.7728 80.607 94.7039C80.7829 94.6351 80.9426 94.5306 81.0761 94.397C81.2097 94.2635 81.3142 94.1038 81.3831 93.9279C81.4519 93.752 81.4837 93.5639 81.4764 93.3751V75.8003H113.007C113.264 75.7944 113.508 75.6893 113.689 75.5072C113.87 75.3251 113.974 75.08 113.978 74.8233V73.4011C113.972 73.1453 113.868 72.9017 113.687 72.7208C113.506 72.5399 113.263 72.4357 113.007 72.4298ZM110.481 82.6045C110.03 81.6332 108.908 81.1071 107.411 81.1071L107.446 81.1303C106.023 81.1303 104.902 81.506 104.902 82.7779C104.902 83.5468 105.798 83.8243 106.775 84.1249C107.082 84.1693 108.044 84.4217 108.98 84.6672C109.627 84.8372 110.263 85.0039 110.66 85.0962C113.279 85.761 114.851 87.4144 114.851 89.8078C114.851 93.8489 110.591 95.1208 107.596 95.1208C103.254 95.1208 100.115 92.7216 100.115 90.4091V90.0969C100.13 89.8841 100.221 89.6838 100.372 89.5329C100.523 89.382 100.723 89.2908 100.936 89.276H103.035C103.63 89.276 104.081 89.3685 104.306 89.9466C104.676 91.0161 106.099 91.5942 107.521 91.5942C109.093 91.5942 110.44 91.2069 110.44 89.8599C110.44 89.1042 109.676 88.8531 108.856 88.5835C108.785 88.5602 108.714 88.5368 108.642 88.5128C107.746 88.2122 105.873 87.7671 104.752 87.5416C102.433 86.871 100.491 85.4488 100.491 82.9802C100.491 79.8353 103.237 77.8176 107.428 77.8176C111.475 77.8176 114.366 79.9856 114.366 82.379C114.355 82.5738 114.273 82.7578 114.135 82.8963C113.998 83.0348 113.815 83.1181 113.62 83.1306H111.527C111.001 83.1306 110.625 83.0554 110.481 82.6045Z" fill="#004E88"/>
</svg>
