<?xml version="1.0" encoding="utf-8"?>
<!-- Generator: Adobe Illustrator 25.4.0, SVG Export Plug-In . SVG Version: 6.00 Build 0)  -->
<svg version="1.1" id="Layer_1" xmlns="http://www.w3.org/2000/svg" xmlns:xlink="http://www.w3.org/1999/xlink" x="0px" y="0px"
	 viewBox="0 0 210 98" style="enable-background:new 0 0 210 98;" xml:space="preserve">
<style type="text/css">
	.st0{fill:#E11736;}
</style>
<g id="G2FyHa_00000077312354358229473860000006864012405424897192_">
	<g>
		<path class="st0" d="M111.9,53c-2-0.1-3.8-0.3-5.7-0.4c-5.5-0.3-11-0.7-16.6-0.9c-1-0.1-1.5-0.3-1.8-1.4c-0.5-2.3-1.2-4.6-1.8-6.9
			C86,43,85.9,42.6,85.9,42c2.7-0.2,5.2-0.3,7.8-0.5c8.4-0.5,16.8-1,25.1-1.5c0.6,0,1.1-0.6,1.6-0.9c-0.1-0.2-0.1-0.4-0.2-0.5
			C100,37.3,79.8,36,59.4,34.7c0.9-1.6,1.7-3.1,2.7-4.5c0.2-0.3,0.8-0.4,1.3-0.4c5.2-0.4,10.4-0.7,15.7-1.1
			c11.5-0.8,22.9-1.5,34.4-2.3c4.5-0.3,9-0.6,13.5-0.9c0.9-0.1,1.4-0.4,1.6-1.5c-6.3-0.4-12.5-0.8-19-1.3c0.7-1.3,1.4-2.4,2-3.4
			c0.9-1.5,1.9-3,2.6-4.6c0.9-2.1,2.4-2.6,4.5-2.7c5.4-0.2,10.7-0.6,16.1-0.9c0.9-0.1,2,0,2.1-1.6c-6.2-0.4-12.4-0.9-18.9-1.4
			c1.5-2.5,2.8-4.9,4.2-7.2c0.2-0.3,0.8-0.4,1.1-0.4c12.8,0,25.5,0.1,38.3,0.2c1.4,0,2.9,0.4,4.3,0.7c7,1.8,9.8,6.5,8,13.5
			c-1.5,6.2-5.7,10.5-11,13.6c-2.2,1.3-4.6,2.2-7,3.3c0.3,0.1,0.5,0.2,0.8,0.3c5.8,1.9,8.4,6.5,6.8,12.5c-1.6,6.2-5.7,10.4-11,13.5
			c-6.2,3.7-12.9,5.6-20.2,5.6c-13.1-0.1-26.1,0-39.2,0c-1.2,0-1.8-0.3-2.1-1.6c-0.4-2.1-1-4.1-1.6-6.4c1.9-0.2,3.7-0.3,5.5-0.4
			c4.9-0.3,9.8-0.6,14.7-1C110.5,54.5,111.7,54.7,111.9,53z M122.4,50.2c3.7-0.2,7-0.3,10.3-0.7c1.6-0.2,3.3-1.2,4.7-2.1
			c1.8-1.1,2.9-2.8,3.3-4.9c0.6-2.9-1.3-5.3-4.2-5.3c-1.8,0-3.6,0.1-5.4,0c-1,0-1.6,0.4-2,1.2c-1.9,3.4-3.9,6.7-5.8,10.1
			C123.1,48.8,122.9,49.3,122.4,50.2z M136.9,24.8c0.1,0.2,0.2,0.4,0.2,0.6c3.2-0.3,6.4-0.3,9.5-0.9c3.1-0.6,5.4-2.6,6.4-5.7
			c0.8-2.5-0.2-5-2.2-5.6c-0.9-0.3-1.9-0.1-2.9-0.2c-3.2-0.6-5,0.7-6.4,3.6C140.3,19.4,138.5,22.1,136.9,24.8z"/>
		<path class="st0" d="M67.8,20.2c0.9-1.6,1.7-3.1,2.6-4.4c0.2-0.3,0.9-0.5,1.4-0.6c6.6-0.4,13.1-0.8,19.7-1.2
			c4.1-0.3,8.2-0.5,12.3-0.8c0.8,0,1.6,0,2.6,0c0.8,3.1,1.6,6.3,2.6,9.7C95.2,22,81.7,21.1,67.8,20.2z"/>
		<path class="st0" d="M51.1,49.2c0.9-1.5,1.6-2.9,2.5-4.2c0.2-0.3,0.8-0.5,1.2-0.6c5.9-0.5,11.8-0.9,17.7-1.4
			c3.4-0.3,6.9-0.5,10.3-0.8c0.7-0.1,1.4-0.1,2.4-0.1c-1.7,2.9-3.3,5.7-4.9,8.4c-0.2,0.3-0.7,0.5-1.1,0.5
			c-9.2-0.5-18.4-1.1-27.6-1.6C51.5,49.3,51.4,49.3,51.1,49.2z"/>
		<path class="st0" d="M84.5,94.8c-0.1,0.6-0.1,1-0.2,1.6c-1,0-2.1,0-3.2,0c0-7.1,0-14.3,0-21.6c1.1,0,2.2,0,3.5,0
			c0,2.2,0,4.3,0,6.9c2.6-1.8,5.1-2.5,7.9-1.6c1.8,0.6,3.2,1.8,4.2,3.4C99,87,98.4,92,95.4,94.9C92.6,97.7,88.8,97.7,84.5,94.8z
			 M94.3,88.3c0-3-2.1-5.2-4.9-5.2c-2.7,0-5,2.4-5,5.2c0,3.1,2.2,5.4,5.1,5.3C92.4,93.5,94.4,91.3,94.3,88.3z"/>
		<path class="st0" d="M57.5,89.9c0.7-2.7,1.4-5.4,2.2-8c0.4-1.4,1.8-2.2,3.1-1.5c0.3,0.1,0.5,0.7,0.6,1c0.7,2.4,1.3,4.9,2,7.3
			c0.1,0.5,0.3,0.9,0.7,1.4c0.7-2.2,1.4-4.4,2-6.6c1-3.4,1-3.4,4.9-3c-0.6,1.6-1.1,3.1-1.7,4.6c-1.3,3.5-2.6,7-3.8,10.5
			c-0.3,1-0.9,1-1.8,1c-0.9,0.1-1.1-0.5-1.3-1.2c-0.8-2.7-1.6-5.4-2.3-8.1c-0.1-0.4-0.2-0.7-0.5-1.5c-0.8,2.7-1.5,5-2.2,7.4
			c-0.2,0.6-0.4,1.3-0.6,2c-0.2,0.7-0.3,1.4-1.4,1.4c-1.1,0-1.5-0.4-1.8-1.4c-1.6-4.5-3.2-9-4.9-13.5c-0.1-0.4-0.2-0.8-0.4-1.4
			c1.2,0,2.3-0.1,3.3,0c0.4,0,0.8,0.6,0.9,1c0.8,2.4,1.5,4.8,2.2,7.2c0.1,0.5,0.3,0.9,0.5,1.4C57.3,89.8,57.4,89.8,57.5,89.9z"/>
		<path class="st0" d="M38,90.1c0.5,3.1,4.8,4.8,7.1,2.6c1.6-1.5,3.2-1.1,4.9-1.1c-0.9,3.9-5.7,6.3-9.9,5.2c-4.3-1.2-7-5.5-6.1-9.9
			c0.9-4.8,4.8-7.7,9.5-7.2c4.1,0.4,7.4,4.4,7.3,8.8c0,1.2-0.4,1.7-1.7,1.7c-3.2-0.1-6.5,0-9.7,0C39,90,38.5,90.1,38,90.1z
			 M37.9,86.9c3,0,5.9,0,8.9,0c-0.2-2.3-1.9-3.8-4.2-3.9C40.2,83,38.3,84.5,37.9,86.9z"/>
		<path class="st0" d="M42.8,63.7c0.8-1.4,1.6-2.8,2.4-4.1c0.2-0.3,0.7-0.5,1-0.6c7-0.5,13.9-1,20.9-1.5c3.1-0.2,6.2-0.4,9.6-0.7
			c-1.4,2.4-2.7,4.6-3.9,6.7c-0.1,0.2-0.6,0.3-0.9,0.3c-9.5,0-19.1,0-28.6,0C43.1,63.9,43,63.8,42.8,63.7z"/>
		<path class="st0" d="M194,90c-4.2,0-8.4,0-12.5,0c0.4,3.1,4.7,4.8,7,2.7c1.6-1.5,3.2-1.1,4.9-1.1c-0.5,3.4-5,6-9,5.4
			c-4.8-0.8-7.9-5.4-7-10.2c0.9-4.8,5.4-7.9,10.1-7C191.9,80.5,194.9,85.1,194,90z M181.3,86.9c3,0,6,0,8.9,0
			c-0.3-2.4-2-3.9-4.3-3.9C183.6,83,181.7,84.5,181.3,86.9z"/>
		<path class="st0" d="M116.5,96.4c-1.1,0-2.2,0-3.2,0c-0.1-0.5-0.2-1-0.3-1.7c-2.5,1.9-5.1,2.9-8.1,2c-1.8-0.6-3.1-1.7-4.1-3.3
			c-2.3-3.7-1.7-8.8,1.3-11.6c3.1-2.8,6.8-2.8,10.9,0.3c0.1-0.6,0.2-1.1,0.3-1.8c1,0,2.1,0,3.2,0C116.5,85.7,116.5,91,116.5,96.4z
			 M113,88.3c0-3-2.1-5.2-4.9-5.2c-2.8,0-5,2.3-5,5.3c0,2.9,2.2,5.2,4.9,5.2C110.9,93.6,113,91.4,113,88.3z"/>
		<path class="st0" d="M141.1,96.4c-1.1,0-2.1,0-3.2,0c-0.1-0.5-0.2-1-0.3-1.7c-2.3,1.8-4.8,2.9-7.7,2.1c-1.8-0.5-3.2-1.5-4.3-3
			c-2.4-3.4-2.1-8.7,0.8-11.7c3-3.1,6.5-3.2,11.3-0.1c0.1-0.5,0.1-1.1,0.2-1.7c1,0,2.1,0,3.2,0C141.1,85.6,141.1,90.9,141.1,96.4z
			 M132.8,93.6c2.8,0,4.9-2.3,4.9-5.2c0-3-2.2-5.3-5-5.3c-2.8,0-4.9,2.4-4.9,5.4C127.8,91.3,130,93.6,132.8,93.6z"/>
		<path class="st0" d="M105,7.4c-9.7-0.6-19.1-1.2-28.7-1.8c1-1.6,1.8-3.1,2.7-4.6c0.2-0.3,0.8-0.3,1.2-0.3c7.3,0,14.6,0,21.9,0.1
			c0.4,0,1.1,0.3,1.2,0.6C103.9,3.3,104.4,5.2,105,7.4z"/>
		<path class="st0" d="M143.6,80.1c1.3,0.6,2.9-0.8,3.5,0.9c1.6-0.4,3.2-1.2,4.8-1.2c3-0.1,5.5,2.1,5.8,5.1
			c0.3,3.8,0.1,7.6,0.1,11.6c-0.8,0-1.8,0.1-2.7-0.1c-0.3-0.1-0.7-0.8-0.8-1.2c-0.1-2.9-0.1-5.9-0.3-8.9c-0.1-2-1.4-3.2-3.1-3.3
			c-1.6,0-3,1-3.4,2.6c-0.2,0.7-0.3,1.5-0.3,2.3c0,2.3,0,4.6,0,6.8c0,0.5,0,0.9-0.1,1.5c-1.2,0-2.3,0-3.6,0
			C143.6,91,143.6,85.7,143.6,80.1z"/>
		<path class="st0" d="M18.2,79.9c1.4,0.8,3-0.7,3.7,1.4c1.7-1.3,3.5-2.1,5.6-1.6c2.9,0.7,4.7,2.6,4.9,5.5c0.2,3.4,0.1,6.8,0.1,10.2
			c0,0.3-0.5,0.9-0.9,0.9c-0.8,0.1-1.7,0-2.8,0c0-0.6,0-1.1,0-1.6c0-2.7,0-5.4-0.1-8.1c-0.1-2.2-1.4-3.5-3.1-3.6
			c-1.6-0.1-3.1,1-3.5,2.7C22,86.6,22,87.5,22,88.4c0,2.6,0,5.2,0,8.1c-1.1,0-2.1,0-3.1,0c-0.2,0-0.7-0.5-0.7-0.7
			C18.2,90.6,18.2,85.5,18.2,79.9z"/>
		<path class="st0" d="M176.3,85.5c-1.3,0-2.4,0-3.6,0c-0.3,0-0.7-0.2-0.8-0.5c-1.4-1.9-3.3-2.4-5.4-1.5c-2.1,0.8-2.9,2.5-3,4.7
			c-0.1,2.2,1.1,4.2,3,5c2,0.8,3.5,0.4,5.4-1.3c0.5-0.5,1.6-0.4,2.4-0.5c0.7-0.1,1.3,0,2,0c-0.8,3.6-4.6,6-8.8,5.7
			c-4.2-0.4-7.6-4-7.8-8.4c-0.2-4.4,3-8.2,7.4-8.9C171,79.1,175.1,81.5,176.3,85.5z"/>
		<path class="st0" d="M118.9,96.5c0-7.4,0-14.5,0-21.7c1.2,0,2.3,0,3.6,0c0,0.6,0.1,1.2,0.1,1.8c0,6,0,11.9,0,17.9
			c0,2.1,0,2.1-2,2.1C120.1,96.5,119.5,96.5,118.9,96.5z"/>
	</g>
</g>
</svg>
