<svg width="210" height="98" viewBox="0 0 210 98" fill="none" xmlns="http://www.w3.org/2000/svg">
<path fill-rule="evenodd" clip-rule="evenodd" d="M157.077 5.68249C157.077 4.26344 158.167 3.29321 159.56 3.29321C160.952 3.29321 162.043 4.26881 162.043 5.68249C162.043 7.09617 160.947 8.06909 159.56 8.06909C158.173 8.06909 157.077 7.10155 157.077 5.68249ZM158.614 7.08953C158.893 7.27941 159.222 7.38273 159.56 7.38644V7.39719C159.788 7.40498 160.015 7.36605 160.228 7.28277C160.441 7.1995 160.634 7.07366 160.796 6.91301C160.958 6.75235 161.085 6.56029 161.17 6.34866C161.255 6.13703 161.295 5.91032 161.289 5.68249C161.289 5.34565 161.19 5.01618 161.003 4.7356C160.816 4.45501 160.551 4.23586 160.239 4.10574C159.928 3.97563 159.585 3.94037 159.253 4.00441C158.922 4.06844 158.617 4.22891 158.377 4.4656C158.137 4.70229 157.972 5.00461 157.904 5.33449C157.835 5.66437 157.866 6.00704 157.993 6.31935C158.119 6.63166 158.336 6.89964 158.614 7.08953ZM58.79 50.8315H70.8771L88.6901 3.43823H77.4648L69.4632 24.6945L70.8421 3.43823H58.8977L41.0874 50.8315H52.3128L60.1635 29.8628L58.79 50.8315ZM44.2305 61.5846C44.2305 60.1655 45.3212 59.1953 46.7136 59.1953C48.106 59.1953 49.1968 60.1709 49.1968 61.5846C49.1968 62.9983 48.1006 63.9712 46.7136 63.9712C45.3266 63.9712 44.2305 63.0036 44.2305 61.5846ZM45.7684 62.9916C46.0472 63.1815 46.3761 63.2848 46.7136 63.2885V63.2993C46.9419 63.3071 47.1693 63.2681 47.3819 63.1849C47.5945 63.1016 47.7878 62.9758 47.9498 62.8151C48.1118 62.6544 48.2391 62.4624 48.3238 62.2508C48.4086 62.0391 48.4491 61.8124 48.4427 61.5846C48.4432 61.2477 48.3438 60.9183 48.157 60.6377C47.9702 60.3571 47.7044 60.138 47.3931 60.0078C47.0817 59.8777 46.7388 59.8425 46.4074 59.9065C46.076 59.9705 45.771 60.131 45.5308 60.3677C45.2906 60.6044 45.126 60.9067 45.0577 61.2366C44.9894 61.5665 45.0204 61.9091 45.1469 62.2214C45.2733 62.5338 45.4896 62.8017 45.7684 62.9916ZM72.3369 50.8315L90.1472 3.43823H101.373L83.5623 50.8315H72.3369ZM22.3777 88.6033C9.30753 77.3369 24.1041 52.877 39.7921 34.4938C26.2641 61.4935 44.9631 71.5129 61.3918 66.9171C61.3918 66.9171 90.3995 59.0711 120.997 50.7964L104.839 50.8317L104.324 31.0106L96.7833 50.8317H85.558L103.226 3.43579H114.594L109.164 17.6559L120.928 3.43579H155.17L152.153 11.3347H140.793L137.093 21.3164H147.893L144.572 30.1506H133.777L129.468 41.6401H142.563L141.239 45.3225C167.903 38.1122 191.022 31.862 191.267 31.8008C192.705 31.4434 192.921 32.1609 191.771 32.7334C191.771 32.7334 72.4636 84.4376 61.6692 88.7458L61.3858 88.8589C50.5989 93.1653 34.9256 99.4226 22.3777 88.6033ZM47.1364 61.754C47.2241 61.7579 47.3116 61.7426 47.3927 61.7091C47.4738 61.6757 47.5465 61.6249 47.6059 61.5603C47.6652 61.4957 47.7096 61.419 47.7359 61.3354C47.7623 61.2519 47.77 61.1636 47.7585 61.0768C47.7585 60.4559 47.3519 60.3 46.6812 60.3H45.7063V62.8721H46.3554V61.7755H46.4658L47.0583 62.8721H47.807L47.1364 61.754ZM46.719 61.3375H46.3473V60.7408H46.6624C46.8536 60.7408 47.0745 60.7623 47.0745 61.0096C47.0745 61.2568 46.9452 61.3375 46.719 61.3375ZM159.982 5.85194C160.07 5.85584 160.158 5.84051 160.239 5.80704C160.32 5.77356 160.393 5.72275 160.452 5.65819C160.511 5.59362 160.556 5.51687 160.582 5.43333C160.608 5.34979 160.616 5.2615 160.605 5.17467C160.605 4.55383 160.198 4.39795 159.527 4.39795H158.552V6.96999H159.201V5.87345H159.312L159.904 6.96999H160.653L159.982 5.85194ZM159.565 5.43537H159.193V4.83872H159.508C159.7 4.83872 159.921 4.86022 159.921 5.10748C159.921 5.35474 159.791 5.43537 159.565 5.43537ZM115.256 22.9693L115.981 47.6711L132.223 4.37377L115.256 22.9693Z" fill="#404040"/>
</svg>
