<svg width="145" height="26" viewBox="0 0 145 26" fill="none" xmlns="http://www.w3.org/2000/svg">
<path d="M6.58406 19.168C5.35206 19.168 4.24806 18.968 3.27206 18.568C2.29606 18.168 1.51206 17.576 0.920057 16.792C0.344057 16.008 0.0400566 15.064 0.00805664 13.96H4.37606C4.44006 14.584 4.65606 15.064 5.02406 15.4C5.39206 15.72 5.87206 15.88 6.46406 15.88C7.07206 15.88 7.55206 15.744 7.90406 15.472C8.25606 15.184 8.43206 14.792 8.43206 14.296C8.43206 13.88 8.28806 13.536 8.00006 13.264C7.72806 12.992 7.38406 12.768 6.96806 12.592C6.56806 12.416 5.99206 12.216 5.24006 11.992C4.15206 11.656 3.26406 11.32 2.57606 10.984C1.88806 10.648 1.29606 10.152 0.800057 9.49599C0.304057 8.83999 0.0560566 7.98399 0.0560566 6.92799C0.0560566 5.35999 0.624057 4.13599 1.76006 3.25599C2.89606 2.35999 4.37606 1.91199 6.20006 1.91199C8.05606 1.91199 9.55206 2.35999 10.6881 3.25599C11.8241 4.13599 12.4321 5.36799 12.5121 6.95199H8.07206C8.04006 6.40799 7.84006 5.98399 7.47206 5.67999C7.10406 5.35999 6.63206 5.19999 6.05606 5.19999C5.56006 5.19999 5.16006 5.33599 4.85606 5.60799C4.55206 5.86399 4.40006 6.23999 4.40006 6.73599C4.40006 7.27999 4.65606 7.70399 5.16806 8.00799C5.68006 8.31199 6.48006 8.63999 7.56806 8.99199C8.65606 9.35999 9.53606 9.71199 10.2081 10.048C10.8961 10.384 11.4881 10.872 11.9841 11.512C12.4801 12.152 12.7281 12.976 12.7281 13.984C12.7281 14.944 12.4801 15.816 11.9841 16.6C11.5041 17.384 10.8001 18.008 9.87206 18.472C8.94406 18.936 7.84806 19.168 6.58406 19.168Z" fill="#404040"/>
<path d="M28.4777 5.60799V19H24.3737V17.176C23.9577 17.768 23.3897 18.248 22.6697 18.616C21.9657 18.968 21.1817 19.144 20.3177 19.144C19.2937 19.144 18.3897 18.92 17.6057 18.472C16.8217 18.008 16.2137 17.344 15.7817 16.48C15.3497 15.616 15.1337 14.6 15.1337 13.432V5.60799H19.2137V12.88C19.2137 13.776 19.4457 14.472 19.9097 14.968C20.3737 15.464 20.9977 15.712 21.7817 15.712C22.5817 15.712 23.2137 15.464 23.6777 14.968C24.1417 14.472 24.3737 13.776 24.3737 12.88V5.60799H28.4777Z" fill="#404040"/>
<path d="M35.5296 7.83999C36.0096 7.10399 36.6096 6.52799 37.3296 6.11199C38.0496 5.67999 38.8496 5.46399 39.7296 5.46399V9.80799H38.6016C37.5776 9.80799 36.8096 10.032 36.2976 10.48C35.7856 10.912 35.5296 11.68 35.5296 12.784V19H31.4256V5.60799H35.5296V7.83999Z" fill="#404040"/>
<path d="M47.7152 15.16L50.6192 5.60799H54.9872L50.2352 19H45.1712L40.4192 5.60799H44.8112L47.7152 15.16Z" fill="#404040"/>
<path d="M59.448 4.44C58.728 4.44 58.136 4.232 57.672 3.816C57.224 3.384 57 2.856 57 2.232C57 1.592 57.224 1.064 57.672 0.648C58.136 0.216 58.728 0 59.448 0C60.152 0 60.728 0.216 61.176 0.648C61.64 1.064 61.872 1.592 61.872 2.232C61.872 2.856 61.64 3.384 61.176 3.816C60.728 4.232 60.152 4.44 59.448 4.44ZM61.488 5.832V19.224H57.384V5.832H61.488Z" fill="#F15D5C"/>
<path d="M81.5501 5.688C83.2141 5.688 84.5341 6.192 85.5101 7.2C86.5021 8.208 86.9981 9.608 86.9981 11.4V19.224H82.9181V11.952C82.9181 11.088 82.6861 10.424 82.2221 9.96C81.7741 9.48 81.1501 9.24 80.3501 9.24C79.5501 9.24 78.9181 9.48 78.4541 9.96C78.0061 10.424 77.7821 11.088 77.7821 11.952V19.224H73.7021V11.952C73.7021 11.088 73.4701 10.424 73.0061 9.96C72.5581 9.48 71.9341 9.24 71.1341 9.24C70.3341 9.24 69.7021 9.48 69.2381 9.96C68.7901 10.424 68.5661 11.088 68.5661 11.952V19.224H64.4621V5.832H68.5661V7.512C68.9821 6.952 69.5261 6.512 70.1981 6.192C70.8701 5.856 71.6301 5.688 72.4781 5.688C73.4861 5.688 74.3821 5.904 75.1661 6.336C75.9661 6.768 76.5901 7.384 77.0381 8.184C77.5021 7.448 78.1341 6.848 78.9341 6.384C79.7341 5.92 80.6061 5.688 81.5501 5.688Z" fill="#F15D5C"/>
<path d="M93.9724 7.728C94.3724 7.104 94.9244 6.6 95.6284 6.216C96.3324 5.832 97.1564 5.64 98.1004 5.64C99.2044 5.64 100.204 5.92 101.1 6.48C101.996 7.04 102.7 7.84 103.212 8.88C103.74 9.92 104.004 11.128 104.004 12.504C104.004 13.88 103.74 15.096 103.212 16.152C102.7 17.192 101.996 18 101.1 18.576C100.204 19.136 99.2044 19.416 98.1004 19.416C97.1724 19.416 96.3484 19.224 95.6284 18.84C94.9244 18.456 94.3724 17.96 93.9724 17.352V25.608H89.8684V5.832H93.9724V7.728ZM99.8284 12.504C99.8284 11.48 99.5404 10.68 98.9644 10.104C98.4044 9.512 97.7084 9.216 96.8764 9.216C96.0604 9.216 95.3644 9.512 94.7884 10.104C94.2284 10.696 93.9484 11.504 93.9484 12.528C93.9484 13.552 94.2284 14.36 94.7884 14.952C95.3644 15.544 96.0604 15.84 96.8764 15.84C97.6924 15.84 98.3884 15.544 98.9644 14.952C99.5404 14.344 99.8284 13.528 99.8284 12.504Z" fill="#F15D5C"/>
<path d="M105.341 12.504C105.341 11.128 105.597 9.92 106.109 8.88C106.637 7.84 107.349 7.04 108.245 6.48C109.141 5.92 110.141 5.64 111.245 5.64C112.189 5.64 113.013 5.832 113.717 6.216C114.437 6.6 114.989 7.104 115.373 7.728V5.832H119.477V19.224H115.373V17.328C114.973 17.952 114.413 18.456 113.693 18.84C112.989 19.224 112.165 19.416 111.221 19.416C110.133 19.416 109.141 19.136 108.245 18.576C107.349 18 106.637 17.192 106.109 16.152C105.597 15.096 105.341 13.88 105.341 12.504ZM115.373 12.528C115.373 11.504 115.085 10.696 114.509 10.104C113.949 9.512 113.261 9.216 112.445 9.216C111.629 9.216 110.933 9.512 110.357 10.104C109.797 10.68 109.517 11.48 109.517 12.504C109.517 13.528 109.797 14.344 110.357 14.952C110.933 15.544 111.629 15.84 112.445 15.84C113.261 15.84 113.949 15.544 114.509 14.952C115.085 14.36 115.373 13.552 115.373 12.528Z" fill="#F15D5C"/>
<path d="M121.63 12.528C121.63 11.136 121.911 9.92 122.471 8.88C123.047 7.84 123.838 7.04 124.846 6.48C125.87 5.92 127.038 5.64 128.35 5.64C130.03 5.64 131.431 6.08 132.551 6.96C133.687 7.84 134.431 9.08 134.783 10.68H130.415C130.047 9.656 129.335 9.144 128.279 9.144C127.527 9.144 126.927 9.44 126.479 10.032C126.031 10.608 125.807 11.44 125.807 12.528C125.807 13.616 126.031 14.456 126.479 15.048C126.927 15.624 127.527 15.912 128.279 15.912C129.335 15.912 130.047 15.4 130.415 14.376H134.783C134.431 15.944 133.687 17.176 132.551 18.072C131.415 18.968 130.014 19.416 128.35 19.416C127.038 19.416 125.87 19.136 124.846 18.576C123.838 18.016 123.047 17.216 122.471 16.176C121.911 15.136 121.63 13.92 121.63 12.528Z" fill="#F15D5C"/>
<path d="M144.442 15.744V19.224H142.354C140.866 19.224 139.706 18.864 138.874 18.144C138.042 17.408 137.626 16.216 137.626 14.568V9.24H135.994V5.832H137.626V2.568H141.73V5.832H144.418V9.24H141.73V14.616C141.73 15.016 141.826 15.304 142.018 15.48C142.21 15.656 142.53 15.744 142.978 15.744H144.442Z" fill="#F15D5C"/>
</svg>
