<svg width="210" height="98" viewBox="0 0 210 98" fill="none" xmlns="http://www.w3.org/2000/svg">
<path fill-rule="evenodd" clip-rule="evenodd" d="M152.499 62.3392L136.025 34.8902L117.808 4.59619L110.304 9.10918L98.3877 16.2722L110.304 36.1159L126.032 62.3392H136.025H152.499ZM169.572 63.2423C169.579 62.7292 169.45 62.2235 169.197 61.7767C168.942 61.3231 168.567 60.9484 168.114 60.6934C167.676 60.4561 167.188 60.3276 166.69 60.3186C166.192 60.3271 165.703 60.4557 165.265 60.6934C164.81 60.9472 164.434 61.3221 164.178 61.7767C163.92 62.2223 163.783 62.7275 163.781 63.2423C163.785 63.7497 163.922 64.2471 164.178 64.6854C164.417 65.1289 164.773 65.4974 165.209 65.7499C165.65 66.0002 166.149 66.1295 166.656 66.1247C167.162 66.1273 167.661 65.9981 168.103 65.7499C168.55 65.5033 168.918 65.134 169.163 64.6854C169.426 64.2493 169.567 63.7511 169.572 63.2423ZM170.153 63.2423C170.154 63.8476 169.995 64.4423 169.692 64.9665C169.406 65.515 168.958 65.9624 168.41 66.2484C167.887 66.5573 167.29 66.718 166.682 66.7132C166.076 66.719 165.479 66.5582 164.958 66.2484C164.407 65.9643 163.958 65.5164 163.672 64.9665C163.368 64.443 163.209 63.8478 163.211 63.2423C163.204 62.6231 163.363 62.0134 163.672 61.4768C163.973 60.9309 164.426 60.4842 164.977 60.1911C165.501 59.9058 166.085 59.7478 166.682 59.7301C167.28 59.7392 167.866 59.8977 168.388 60.1911C168.947 60.4763 169.407 60.9246 169.707 61.4768C170.009 62.0155 170.163 62.6247 170.153 63.2423ZM167.304 62.1778C167.363 62.2677 167.391 62.3743 167.383 62.4814C167.386 62.5569 167.372 62.632 167.342 62.7014C167.312 62.7707 167.267 62.8326 167.211 62.8825C167.053 62.9928 166.863 63.0481 166.671 63.0399H165.749V61.9154H166.671C166.797 61.9288 166.922 61.95 167.046 61.9791C167.154 62.0107 167.246 62.0816 167.304 62.1778ZM168.047 62.4177C168.048 62.2228 167.985 62.033 167.867 61.8779C167.751 61.6996 167.573 61.5702 167.368 61.5143C167.135 61.4431 166.892 61.4102 166.648 61.4169C166.621 61.4169 166.588 61.4128 166.553 61.4085C166.512 61.4035 166.469 61.3982 166.427 61.3982H165.123V65.1802H165.726V63.5797H166.101L166.581 63.7184C166.612 63.7337 166.639 63.754 166.663 63.7783C166.887 64.0175 167.075 64.2877 167.222 64.5805L167.563 65.1802H168.286L167.844 64.4305L167.286 63.6809C167.191 63.5957 167.082 63.5284 166.963 63.4822C167.258 63.4718 167.538 63.3499 167.747 63.1411C167.843 63.0473 167.92 62.9347 167.971 62.8103C168.023 62.6859 168.048 62.5523 168.047 62.4177ZM164.677 76.6949H170.494C170.528 75.417 170.228 74.1522 169.625 73.0253C169.018 71.9728 168.121 71.1167 167.042 70.5589C166.924 70.4787 166.799 70.4109 166.667 70.3565C165.082 69.6068 162.971 69.232 160.347 69.232C157.154 69.232 154.747 70.0754 153.143 71.7809C151.874 73.1282 151.189 74.9232 151.239 76.7736C151.239 79.225 152.442 81.0055 154.89 82.13C155.819 82.5723 158.065 83.2095 161.637 83.9592C164.028 84.4802 165.228 85.2224 165.228 86.1669C165.228 86.4579 165.16 86.7449 165.03 87.0051C164.9 87.2653 164.711 87.4917 164.478 87.6663C163.821 88.2285 162.821 88.5096 161.479 88.5096C159.695 88.5096 158.436 88.206 157.686 87.625C157.316 87.3411 157.021 86.9718 156.825 86.5488C156.629 86.1258 156.539 85.6617 156.562 85.1961H150.463C150.433 86.4614 150.736 87.7125 151.34 88.8245C151.969 89.9012 152.875 90.7893 153.964 91.3959C155.831 92.4604 158.278 93.0001 161.307 93.0001C163.149 93.0349 164.979 92.6944 166.686 91.9993C167.004 91.8569 167.286 91.7182 167.589 91.557C169.977 90.2339 171.18 88.1273 171.18 85.2374C171.18 82.8722 169.958 81.1029 167.488 79.941C167.313 79.8537 167.08 79.7664 166.815 79.6671L166.686 79.6186C164.716 78.9974 162.714 78.4819 160.689 78.0743C158.263 77.5345 157.038 76.8299 157.038 75.949C157.025 75.6666 157.077 75.3851 157.188 75.1255C157.3 74.8658 157.469 74.6348 157.682 74.4497C158.233 73.9661 159.215 73.7262 160.681 73.7262C162.147 73.7262 163.211 74.0486 163.833 74.6708C164.216 75.0532 164.497 75.7316 164.677 76.6949ZM147.967 81.3991V92.6441H142.505V91.3997C140.596 92.6463 138.365 93.3093 136.084 93.3076H136.025C132.9 93.2522 129.923 91.9722 127.733 89.7432C125.543 87.5142 124.316 84.5144 124.316 81.3898C124.316 78.2651 125.543 75.2653 127.733 73.0363C129.923 70.8073 132.9 69.5274 136.025 69.472H136.084C138.364 69.4689 140.596 70.1306 142.505 71.3761V70.0717H147.967V81.3991ZM142.49 82.6436V80.1547C142.199 78.6679 141.401 77.3279 140.233 76.3624C139.066 75.3969 137.6 74.8654 136.084 74.8583H136.025C134.314 74.8992 132.688 75.6073 131.493 76.8312C130.298 78.0552 129.629 79.6979 129.629 81.4085C129.629 83.1191 130.298 84.7618 131.493 85.9858C132.688 87.2097 134.314 87.9178 136.025 87.9587H136.084C137.604 87.9506 139.074 87.4168 140.244 86.4479C141.415 85.479 142.214 84.1348 142.505 82.6436H142.49ZM122.261 92.6442V81.3992V62.339H116.784V71.3762C114.874 70.1333 112.643 69.4718 110.364 69.4721H110.304C107.179 69.5275 104.202 70.8075 102.012 73.0364C99.8223 75.2654 98.5953 78.2652 98.5953 81.3899C98.5953 84.5146 99.8223 87.5143 102.012 89.7433C104.202 91.9723 107.179 93.2523 110.304 93.3077H110.364C112.643 93.3066 114.874 92.6438 116.784 91.3998V92.6442H122.261ZM116.784 80.1548V82.6437C116.493 84.1349 115.694 85.4791 114.523 86.448C113.353 87.4169 111.883 87.9507 110.364 87.9588H110.304C108.594 87.9179 106.967 87.2098 105.772 85.9859C104.577 84.762 103.908 83.1192 103.908 81.4086C103.908 79.698 104.577 78.0553 105.772 76.8313C106.967 75.6074 108.594 74.8993 110.304 74.8584H110.364C111.881 74.8621 113.351 75.392 114.522 76.3578C115.693 77.3235 116.492 78.6655 116.784 80.1548ZM110.303 51.5438L116.762 62.339H110.303H90.3172L75.635 37.9036L74.9941 36.8391L75.635 36.4568L94.4329 25.1406L110.303 51.5438ZM90.3399 69.4795H96.2997V92.6517H90.3399V69.4795ZM96.2997 62.4589H90.3399V67.6953H96.2997V62.4589ZM87.6188 92.6442V81.3992V62.339H82.1237V71.3762C80.2063 70.1326 77.9695 69.4712 75.6841 69.4721H75.6241C72.4999 69.5275 69.5224 70.8075 67.3326 73.0364C65.1428 75.2654 63.9158 78.2652 63.9158 81.3899C63.9158 84.5146 65.1428 87.5143 67.3326 89.7433C69.5224 91.9723 72.4999 93.2523 75.6241 93.3077H75.6953C77.9811 93.3072 80.2178 92.6445 82.135 91.3998V92.6442H87.6188ZM82.1425 80.1548V82.6437H82.135C81.8415 84.1396 81.038 85.4873 79.8615 86.4566C78.685 87.426 77.2085 87.9569 75.6841 87.9588H75.6241C73.914 87.9179 72.2877 87.2098 71.0927 85.9859C69.8977 84.762 69.2287 83.1192 69.2287 81.4086C69.2287 79.698 69.8977 78.0553 71.0927 76.8313C72.2877 75.6074 73.914 74.8993 75.6241 74.8584H75.7028C77.2234 74.8592 78.6966 75.3876 79.871 76.3535C81.0454 77.3194 81.8482 78.663 82.1425 80.1548ZM75.6353 53.3093L81.0516 62.339H75.6353H54.5884L51.6198 57.3837L71.0586 45.7039L75.6353 53.3093ZM61.6313 92.6441V81.3991V70.0717H56.155V71.3761C54.2357 70.1335 51.9981 69.4723 49.7116 69.4719H49.6517C46.5275 69.5273 43.55 70.8073 41.3602 73.0363C39.1703 75.2653 37.9434 78.2651 37.9434 81.3897C37.9434 84.5144 39.1703 87.5142 41.3602 89.7432C43.55 91.9722 46.5275 93.2521 49.6517 93.3076H49.7116C51.9984 93.3059 54.236 92.6433 56.155 91.3997V92.6441H61.6313ZM56.155 80.1547V82.6436C55.8612 84.1379 55.0585 85.4842 53.8837 86.4533C52.7089 87.4224 51.2346 87.9544 49.7116 87.9587H49.6517C47.9416 87.9178 46.3153 87.2097 45.1203 85.9858C43.9253 84.7618 43.2563 83.1191 43.2563 81.4085C43.2563 79.6979 43.9253 78.0551 45.1203 76.8312C46.3153 75.6073 47.9416 74.8992 49.6517 74.8583H49.7116C51.2327 74.8589 52.7064 75.3872 53.8814 76.3531C55.0565 77.3189 55.86 78.6625 56.155 80.1547Z" fill="#404040"/>
</svg>
