<svg width="210" height="98" viewBox="0 0 210 98" fill="none" xmlns="http://www.w3.org/2000/svg">
<path fill-rule="evenodd" clip-rule="evenodd" d="M88.9714 6.41501C93.1141 3.66509 97.9678 2.19401 102.933 2.1834L102.91 2.17188C109.06 2.18164 114.998 4.42914 119.624 8.49833C124.251 12.5675 127.253 18.1828 128.075 24.3045C128.898 30.4263 127.484 36.64 124.096 41.7952C120.708 46.9504 115.575 50.698 109.648 52.3443C109.537 51.3986 109.22 50.4892 108.719 49.6807C108.218 48.8722 107.546 48.1845 106.751 47.6666C104.564 46.1842 103.003 45.6805 101.87 45.3147C101.095 45.0649 100.52 44.8794 100.082 44.4904C99.2883 43.7974 100.829 39.4431 101.071 39.0851C101.078 39.0734 101.086 39.0616 101.094 39.0496L101.119 39.0099C101.344 38.6574 101.643 38.1884 104.129 37.9301C106.717 37.6611 106.426 36.4897 106.228 35.6923L106.21 35.6201L106.189 35.5327C106.001 34.7687 105.826 34.0598 106.302 33.726C106.797 33.3795 106.509 33.0791 106.509 33.0791L105.67 32.3862C106.015 32.2245 107.05 31.6008 106.751 31.2312C106.38 30.803 106.127 30.2857 106.015 29.7297C106.015 29.7297 107.394 28.7595 106.946 28.159C106.803 27.9581 106.496 27.8172 106.103 27.6369C105.705 27.4544 105.219 27.2315 104.727 26.8654C103.393 25.8721 103.393 25.1329 103.393 25.1329C103.456 24.4555 103.406 23.7723 103.244 23.1117C103.027 21.9994 102.639 20.9278 102.094 19.9355H103.14C103.14 19.9355 103.025 19.2309 101.565 18.076C100.178 17.1377 98.5659 16.5911 96.8968 16.4936L98.2995 15.8353L97.2532 15.5697C95.9774 15.4187 94.686 15.4654 93.4243 15.7083L95.54 14.1144C92.5583 14.0244 89.6039 14.7086 86.9624 16.1009C82.0872 18.4802 82.6161 21.668 82.6161 21.668C82.6161 21.668 80.512 22.0375 79.9831 25.5025C79.1667 30.7923 86.5715 38.6115 86.5715 38.6115L86.8359 37.549C87.4145 38.3355 87.8077 39.2439 87.9857 40.2054C88.0937 40.9336 87.7775 41.2253 87.398 41.5755C87.2116 41.7474 87.0101 41.9334 86.8359 42.192C86.307 42.9774 84.5363 45.2873 84.5363 45.2873C81.1204 41.6672 78.8347 37.1216 77.9613 32.2115C77.088 27.3014 77.6652 22.2419 79.6218 17.6576C81.5784 13.0733 84.8287 9.16492 88.9714 6.41501ZM115.397 24.0472L118.295 20.2127L120.663 21.564L118.95 17.8565L120.399 14.8189L118.157 15.8699L115.524 12.5667L115.926 16.6669L113.155 17.8219L115.926 19.2771L115.397 24.0472ZM101.634 26.0339L101.738 26.3342C101.738 26.3342 100.013 26.3919 99.7598 26.3342C99.5069 26.2764 99.6104 25.9299 99.9553 25.6874C100.412 25.1942 100.824 24.6608 101.186 24.0935L101.094 24.6941C101.337 24.7982 101.53 24.9927 101.634 25.237C101.721 25.4955 101.721 25.7754 101.634 26.0339ZM59.7005 67.1855C52.9741 74.9124 50.2031 84.5102 49.2372 94.8011C51.2534 94.9744 53.2806 94.9744 55.2968 94.8011L55.9751 89.1186L56.2511 88.7721C58.0568 88.8479 59.9175 88.8464 61.7832 88.8448H61.7835C64.1826 88.8428 66.5899 88.8407 68.899 89.0032L69.8073 95.0321H75.9128C75.0735 84.7412 72.5784 74.9701 65.622 67.1855H59.7005ZM57.4929 83.7133C58.4631 79.6664 60.1285 75.8205 62.4141 72.3483H62.644C64.8033 75.8659 66.4964 79.6516 67.6802 83.6093C65.5813 83.7475 63.4368 83.73 61.2869 83.7125C60.0214 83.7022 58.754 83.6919 57.4929 83.7133ZM117.776 66.3981C120.203 66.5994 122.544 67.3932 124.596 68.7104C126.362 69.837 127.836 71.369 128.896 73.1801C130.225 75.6145 130.888 78.3593 130.817 81.1348C130.747 83.9103 129.945 86.6174 128.494 88.9803C126.985 91.4045 124.791 93.3214 122.192 94.486C119.592 95.6505 116.706 96.0096 113.903 95.5175C111.69 95.0319 109.626 94.0202 107.883 92.5671C106.14 91.1141 104.77 89.2622 103.888 87.167C102.704 84.1608 102.437 80.8688 103.121 77.7098C103.805 74.5508 105.409 71.6674 107.728 69.4264C108.599 68.6423 109.594 68.0099 110.672 67.5554C112.911 66.5941 115.35 66.1968 117.776 66.3981ZM119.799 89.5277C121.283 88.8745 122.549 87.8064 123.446 86.4509H123.458C124.494 84.842 125.079 82.9817 125.15 81.0666C125.22 79.1515 124.775 77.2527 123.86 75.5709C123.135 74.2345 122.048 73.131 120.726 72.3872C119.404 71.6435 117.9 71.2898 116.386 71.3668C115.41 71.4574 114.454 71.7071 113.558 72.106C112.417 72.6964 111.401 73.5046 110.568 74.4853C109.361 76.0847 108.625 77.9925 108.444 79.9916C108.263 81.9907 108.644 84.0006 109.545 85.7925C110.113 86.8646 110.899 87.805 111.852 88.553C112.804 89.3011 113.903 89.8401 115.075 90.1353C116.676 90.3918 118.315 90.1809 119.799 89.5277ZM48.1681 72.1868C43.1319 65.1299 33.4505 65.4764 25.5974 66.666C26.1151 76.0556 26.1496 85.4658 25.7008 94.8591C33.7495 96.3374 42.948 95.9332 47.8806 88.8301C50.8241 84.2333 51.1576 76.8991 48.1681 72.1868ZM43.0744 86.3353C40.6368 89.9157 36.2331 90.7127 32.0363 90.193C31.8353 86.531 31.8766 82.8061 31.9185 79.0308C31.9461 76.543 31.9739 74.0333 31.9328 71.5054C34.1571 70.8112 36.6348 71.5633 38.8043 72.2219C38.9451 72.2646 39.0846 72.307 39.2226 72.3485C40.7366 73.0429 42.0444 74.1217 43.017 75.4785C43.9556 77.1303 44.4541 78.9974 44.4642 80.8993C44.4742 82.8012 43.9956 84.6736 43.0744 86.3353ZM150.272 73.4621V73.4618V73.4614C150.301 71.4001 150.329 69.365 150.329 67.313C151.516 67.2716 152.638 67.2796 153.793 67.2879H153.793H153.793H153.794H153.794C154.573 67.2935 155.366 67.2992 156.204 67.2899V94.5705C154.457 94.7828 152.693 94.8215 150.938 94.6861C148.582 87.3383 144.272 80.7767 138.474 75.7097C138.302 80.4157 138.323 85.1933 138.345 89.9497C138.352 91.532 138.359 93.1119 138.359 94.6861C136.439 94.8593 134.462 94.8593 132.531 94.8593H132.53L132.311 94.455L132.369 67.2899H137.405C142.423 70.6345 146.723 74.9543 150.053 79.9947L150.214 79.9369C150.214 77.721 150.243 75.579 150.272 73.4646V73.4642L150.272 73.4621ZM95.2872 67.3129C95.2661 69.0427 95.2759 70.7183 95.2855 72.3568V72.3568C95.302 75.1927 95.3179 77.9171 95.1722 80.6182C91.5758 75.5697 87.269 71.0723 82.3863 67.2667C80.7114 67.087 79.0215 67.1025 77.3501 67.3129C77.5617 72.0192 77.4769 77.0097 77.3911 82.0664V82.0666C77.3182 86.3543 77.2446 90.6897 77.3501 94.94C79.3073 95.044 81.2685 95.044 83.2256 94.94L83.3406 76.1831L83.5131 76.0099C89.2991 81.1296 93.598 87.7267 95.954 95.1017L101.163 94.94L101.335 70.2696L101.163 67.1512C99.2027 67.0945 97.2411 67.1485 95.2872 67.3129ZM181.615 71.6094C183.592 74.6817 183.822 78.8858 183.259 82.6973L163.965 82.9514C163.926 84.608 164.49 86.222 165.552 87.4904C166.315 88.4946 167.331 89.2764 168.495 89.7555C169.659 90.2345 170.929 90.3935 172.175 90.2162C174.052 90.0715 175.824 89.2894 177.199 87.9986L182.638 89.1536V89.4886C179.464 93.9237 174.543 95.8525 169.116 95.6331C167.117 95.5168 165.183 94.878 163.505 93.7801C161.827 92.6821 160.464 91.1629 159.55 89.373C157.009 83.5866 157.009 74.8318 161.757 69.9463C165.782 65.9269 172.451 65.5342 177.544 67.6363C179.238 68.5606 180.646 69.9352 181.615 71.6094ZM172.145 71.2369C170.492 71.0054 168.811 71.384 167.414 72.3024V72.2909C166.451 72.9083 165.64 73.7376 165.043 74.716C164.445 75.6944 164.077 76.7964 163.965 77.9388L164.138 78.1004H177.199L177.832 77.881C177.778 76.3337 177.283 74.8344 176.406 73.5614C175.313 72.2943 173.799 71.4684 172.145 71.2369Z" fill="#004B92"/>
</svg>
