<?xml version="1.0" encoding="utf-8"?>
<!-- Generator: Adobe Illustrator 25.4.0, SVG Export Plug-In . SVG Version: 6.00 Build 0)  -->
<svg version="1.1" id="Layer_1" xmlns="http://www.w3.org/2000/svg" xmlns:xlink="http://www.w3.org/1999/xlink" x="0px" y="0px"
	 viewBox="0 0 210 98" style="enable-background:new 0 0 210 98;" xml:space="preserve">
<style type="text/css">
	.st0{fill:#E91C2D;}
</style>
<g id="usqraY_00000054236237177261887310000000874282004134246278_">
	<g>
		<path class="st0" d="M151.3,97c-2.3-2.1-4.8-4-6.9-6.4c-0.9-1-1.3-2.8-1.1-4.1c1.3-8.5,2.8-17.1,4.4-25.6
			c2.1-11.1,4.4-22.2,6.5-33.3c0.1-0.5,0.1-0.9-0.2-1.6c-0.4,0.7-0.8,1.4-1.1,2.2C145,47,137.1,65.8,129.2,84.5
			c-0.3,0.7-0.5,1.5-0.9,2.2c-1,1.8-2.3,1.9-3.6,0.3c-1.4-1.7-2.8-3.5-4.3-5.2c-2.3-2.5-2.4-5.7-2.3-8.7c0.3-9,1-17.9,1.6-26.9
			c0.4-5.5,1-10.9,1.4-16.3c-0.2-0.1-0.4-0.1-0.6-0.2c-0.3,0.8-0.6,1.5-0.9,2.3c-5.6,18.3-11.3,36.6-16.9,54.9
			c-0.5,1.6-1.1,3.3-2,4.6c-0.5,0.7-2,1.1-2.9,0.9c-0.6-0.2-1.2-1.6-1.3-2.5c-0.1-1.1,0.2-2.2,0.6-3.3c7.9-25.2,15.9-50.4,23.8-75.6
			c1.1-3.4,3-5.3,6.4-6.2c2-0.5,3.9-1.6,5.9-2.2c3.1-1,4.4-0.1,4.1,3.1c-0.8,8.1-1.8,16.2-2.7,24.3c-1.2,11.2-2.4,22.5-3.6,33.8
			c0,0.5,0,0.9,0.1,2.1c0.6-1.2,0.9-1.8,1.2-2.4c8-17.9,16.1-35.8,23.9-53.8c2.8-6.3,8.7-6.8,14.1-8.3c0.6-0.2,1.6,1.1,2.5,1.8
			c0,0.3,0,0.6,0,1c-0.1,0.3-0.4,0.5-0.4,0.8c-5.7,28-11.5,56.1-17.2,84.1c-0.5,2.6-1.5,5.2-2.3,7.8C152.3,97,151.8,97,151.3,97z"/>
		<path class="st0" d="M60.4,97c-1.8-1.8-3.6-3.7-5.6-5.4c-1.7-1.5-2.2-3.2-1.5-5.4c3.1-9.4,6.2-18.9,9.3-28.3
			c0.2-0.8,0.5-1.5,0.8-2.5c-0.7,0-1.2-0.1-1.7,0c-4.7,1-9.5,2.2-14.2,3.1c-1.5,0.3-2.2,1-2.7,2.4c-3.3,9-6.6,18.1-9.9,27.1
			c-0.6,1.5-1.5,3-2.6,4.3c-0.5,0.5-1.9,0.8-2.6,0.5c-0.7-0.3-1.1-1.5-1.2-2.4c-0.1-0.9,0.3-1.9,0.6-2.8c3-8.4,6-16.7,9-25.1
			c0.3-0.7,0.5-1.5,0.5-1.6c-2.3-2-4.3-3.8-6.4-5.5c-0.9-0.7-1.9-1.2-2.7-1.9c-0.9-0.9-1.6-2-2.4-3c0.9-0.6,1.6-1.5,2.6-1.8
			c4.1-1.2,8.2-2.4,12.4-3.4c2.1-0.5,3.3-1.5,4-3.5c4.5-11.5,9.1-23,13.7-34.4c0.6-1.5,1.7-2.9,2.9-4C63.5,2.6,65,2.6,65.8,3
			c0.6,0.3,0.8,1.7,0.8,2.5c-0.1,1-0.6,2-1,3C61.3,19,57.1,29.5,53,40c-0.3,0.7-0.5,1.5-0.9,2.6c5.9-1.2,11.5-2.2,17-3.4
			c0.7-0.1,1.2-1.4,1.6-2.2c4.1-9.8,8.1-19.5,12.1-29.4c0.9-2.1,2.1-3.4,4.5-3.9c2.1-0.4,4.1-1.4,6.2-2.1c3.1-0.9,4.3,0.2,3.2,3.2
			c-1.3,4-2.9,7.9-4.4,11.8c-2.6,6.6-5.2,13.2-8.1,20.3c1.9-0.2,3.5-0.5,5-0.4c1.4,0.2,3.3,0.6,3.9,1.5c0.9,1.5-0.6,2.7-1.8,3.7
			c-1.5,1.3-2.9,2.8-4.1,4.4c-1.7,2.4-3.9,4.1-6.7,4.9c-1.5,0.4-2.3,1.2-2.8,2.6C73,67,68.3,80.2,63.6,93.3
			c-0.5,1.3-1.2,2.4-1.8,3.7C61.4,97,60.9,97,60.4,97z"/>
		<path class="st0" d="M89.2,71.3c1.6-0.2,3.6-1,4.2-0.4c1.5,1.5,0,3.1-0.9,4.5c-0.7,1.1-1.7,2-1,3.7c0.4,1-0.1,2.3-0.2,3.4
			c-1.1-0.5-2.1-1-3.5-1.6c-0.7,0.3-1.9,1.1-3.1,1.5c-3.5,1.2-6.8-1-7.1-4.7c-0.3-3.1,0.9-5.7,3.1-7.8c2.3-2.2,3.5-4.3,2.2-7.6
			c-0.8-2,0-4.3,1.8-5.3c1.4-0.8,3.4-1.1,4.9-0.7c2.5,0.5,3.5,3,2.5,5.4c-0.6,1.5-1.5,2.8-2.5,4.1C87.7,68.5,87.6,68.6,89.2,71.3z
			 M85.2,71.3c-0.9,1.4-1.5,2.2-2,3.2c-0.2,0.4,0,1,0,1.6c0.6,0,1.3,0.1,1.8-0.1C87.3,74.7,85.8,73.3,85.2,71.3z M86,62.6
			c0.4,0.2,0.9,0.3,1.3,0.5c0.3-1.1,0.7-2.1,1-3.2c-0.5-0.1-1.4-0.4-1.4-0.3C86.5,60.6,86.3,61.6,86,62.6z"/>
	</g>
</g>
</svg>
