<svg width="210" height="98" viewBox="0 0 210 98" fill="none" xmlns="http://www.w3.org/2000/svg">
<path fill-rule="evenodd" clip-rule="evenodd" d="M146.079 56.4204H141.054L155.802 27.423H161.594L176.342 56.4204H171.259L167.379 48.7929H149.959L146.079 56.4204ZM165.553 45.1997L158.67 31.6658L151.786 45.1997H165.553ZM123.069 26.6642L126.507 22.698H134.15L123.069 26.6642ZM113.253 56.4785H139.182V53.1853H117.726V43.1723H133.653V39.7684H117.726V30.6808H139.047V27.4542H113.253V56.4785ZM78.0199 27.423H97.1214C102.217 27.423 106.385 31.2077 106.385 35.8348C106.385 39.867 103.218 43.2595 99.0316 44.0643L108.002 56.4204H102.741L93.9024 44.2459H82.0543V56.4204H78.0199V27.423ZM97.337 30.873L97.6043 30.9098L97.8652 30.9602L98.1212 31.024L98.3722 31.1013L98.6168 31.1907L98.8543 31.2914L99.0848 31.4041L99.3081 31.5275L99.5251 31.6622L99.7328 31.8041L99.9328 31.9572L100.124 32.1189L100.306 32.2884L100.478 32.465L100.64 32.6472L100.793 32.8366L100.935 33.0316L101.064 33.2308L101.184 33.4329L101.296 33.64L101.396 33.8528L101.485 34.0655L101.563 34.2782L101.634 34.491L101.692 34.7087L101.739 34.9285L101.776 35.1505L101.803 35.376L101.82 35.6043L101.825 35.8376L101.82 36.0709L101.803 36.2993L101.776 36.5248L101.739 36.7468L101.692 36.9666L101.634 37.1843L101.563 37.397L101.485 37.6098L101.396 37.8225L101.296 38.0353L101.185 38.2416L101.064 38.438L100.933 38.6366L100.791 38.8309L100.638 39.0202L100.477 39.2032L100.304 39.3791L100.124 39.5493L99.9328 39.7109L99.7328 39.8641L99.5251 40.0059L99.3081 40.14L99.0848 40.2634L98.8543 40.3761L98.6168 40.4768L98.3693 40.5676L98.1183 40.6449L97.8624 40.7087L97.6015 40.7591L97.3341 40.7959L97.0612 40.8186L96.7478 40.8271H82.267V30.8418H96.7421L97.064 30.8503L97.337 30.873ZM53.2149 25.7211C45.0276 25.7211 38.3846 32.3614 38.3846 40.5477C38.3846 48.734 45.0247 55.3737 53.212 55.3737C61.3993 55.3737 68.0395 48.7347 68.0395 40.5477C68.0395 32.3607 61.4028 25.7211 53.2149 25.7211ZM53.2149 22.3789C42.3141 22.3789 33.4745 30.5148 33.4745 40.5463C33.4745 50.5778 42.3141 58.7144 53.2149 58.7144C64.1156 58.7144 72.9559 50.5785 72.9559 40.5463C72.9559 30.5141 64.1156 22.3803 53.2149 22.3803V22.3789ZM4.63428 56.4785V27.4542H8.33617V53.3009H30.2675V56.4785H4.63428ZM178.483 56.4785H204.489V53.1768H182.558V27.4542H178.483V56.4785ZM85.1224 75.3338H82.9123L89.3943 64.0507H91.9391L98.4204 75.3338H96.1876L94.4859 72.366H86.8283L85.1266 75.3338H85.1224ZM93.6797 70.9676L90.655 65.7016L87.6302 70.9676H93.6797ZM102.614 64.0507H110.644C112.786 64.0507 114.538 65.5236 114.538 67.3241C114.538 68.8927 113.207 70.2131 111.448 70.5258L115.217 75.3338H113.006L109.289 70.5967H104.739V75.3338H102.616V64.0507H102.614ZM110.732 65.3931L110.844 65.4073L110.954 65.4271L111.062 65.4519L111.168 65.4817L111.27 65.5165L111.37 65.5562L111.467 65.6002L111.56 65.6477L111.652 65.7001L111.739 65.7562L111.823 65.8157L111.903 65.8788L111.98 65.9448L112.051 66.0157L112.122 66.0866L112.186 66.1575L112.246 66.2334L112.301 66.3107L112.352 66.3894L112.398 66.4696L112.44 66.5511L112.478 66.6334L112.51 66.7156L112.539 66.8L112.564 66.8844L112.583 66.9702L112.599 67.0567L112.61 67.144L112.617 67.2333V67.3241V67.4148L112.61 67.5035L112.599 67.5914L112.583 67.6772L112.564 67.763L112.539 67.8481L112.51 67.9318L112.479 68.0141L112.442 68.0963L112.4 68.1779L112.353 68.258L112.303 68.3367L112.247 68.414L112.187 68.4899L112.123 68.5608L112.052 68.6317L111.981 68.7026L111.905 68.7693L111.824 68.8317L111.74 68.8913L111.653 68.9473L111.562 68.9998L111.468 69.048L111.371 69.0912L111.272 69.131L111.169 69.1657L111.063 69.1955L110.956 69.2203L110.846 69.2402L110.734 69.2543L110.619 69.2629H110.488H104.829V65.381H110.485L110.62 65.3846L110.735 65.3931H110.732ZM70.1347 64.0507H78.1653C80.3066 64.0507 82.0586 65.5236 82.0586 67.3241C82.0586 68.4516 81.3708 69.4515 80.3307 70.0401C79.6159 70.4443 78.9076 70.5556 78.0929 70.5861C77.6788 70.6017 77.2492 70.6024 76.8124 70.5967H72.2597V75.3338H70.1375V64.0507H70.1347ZM78.2525 65.3931L78.3652 65.4073L78.4751 65.4271L78.5822 65.4519L78.6878 65.4817L78.7906 65.5165L78.8906 65.5562L78.9877 65.6002L79.0835 65.6455L79.1742 65.698L79.2621 65.754L79.3458 65.8136L79.4266 65.8767L79.5025 65.9427L79.5734 66.0136L79.6443 66.0845L79.7088 66.1554L79.7684 66.2313L79.8237 66.3086L79.8747 66.3873L79.9208 66.4674L79.9634 66.549L80.0009 66.6312L80.0336 66.7135L80.0626 66.7979L80.0867 66.8823L80.1066 66.9681L80.1222 67.0546L80.1335 67.1418L80.1406 67.2312V67.3219V67.4127L80.1335 67.5014L80.1222 67.5893L80.1066 67.6751L80.0867 67.7609L80.0626 67.846L80.0336 67.9297L80.0009 68.0119L79.9634 68.0942L79.9215 68.1757L79.8747 68.2559L79.8237 68.3346L79.7684 68.4119L79.7088 68.4878L79.6443 68.5587L79.5734 68.6296L79.5025 68.7005L79.4266 68.7672L79.3458 68.8296L79.2621 68.8891L79.1742 68.9452L79.0835 68.9976L78.9899 69.0459L78.8927 69.0891L78.7928 69.1288L78.6899 69.1636L78.5843 69.1934L78.4772 69.2182L78.3673 69.238L78.2546 69.2522L78.1404 69.2607H78.0085H72.3476V65.381H78.0057L78.1411 65.3846L78.2553 65.3931H78.2525ZM127.351 71.7087L129.3 71.5853C129.391 72.1498 129.606 72.6128 129.944 72.9745C130.282 73.3361 130.805 73.6285 131.514 73.8517C132.291 74.0844 133.099 74.197 133.91 74.1857C134.614 74.1961 135.316 74.1112 135.997 73.9332C136.6 73.763 137.051 73.5319 137.344 73.2376C137.637 72.9433 137.788 72.6199 137.788 72.2703C137.788 71.9207 137.646 71.6087 137.359 71.3435C137.072 71.0782 136.608 70.8577 135.957 70.6804C135.532 70.562 134.61 70.3783 133.175 70.1287C131.741 69.8791 130.736 69.6451 130.162 69.4245C129.417 69.1409 128.861 68.7906 128.493 68.3736C128.142 67.9894 127.948 67.4882 127.948 66.9681C127.948 66.4008 128.17 65.8675 128.617 65.3739C129.064 64.8804 129.718 64.5017 130.576 64.2443C131.508 63.979 132.473 63.8498 133.441 63.8606C134.601 63.8606 135.619 63.9947 136.506 64.2649C137.393 64.535 138.066 64.93 138.545 65.4527C139.024 65.9753 139.276 66.5688 139.312 67.2312L137.331 67.339C137.222 66.6298 136.862 66.0859 136.248 65.7228C135.634 65.3598 134.728 65.1768 133.528 65.1768C132.278 65.1768 131.369 65.342 130.794 65.6732C130.22 66.0044 129.936 66.4036 129.936 66.8681C129.936 67.2759 130.14 67.6091 130.543 67.8694C130.947 68.1297 131.979 68.3998 133.659 68.6729C135.339 68.9459 136.491 69.1877 137.116 69.3926C138.025 69.6976 138.697 70.0812 139.131 70.5436C139.548 70.9728 139.78 71.5484 139.777 72.1469C139.777 72.749 139.541 73.3135 139.068 73.8439C138.595 74.3743 137.905 74.787 137.012 75.0842C136.119 75.3813 135.117 75.5253 134.005 75.5253C132.591 75.5253 131.407 75.3766 130.453 75.0792C129.499 74.7818 128.75 74.3341 128.206 73.7361C127.664 73.1404 127.377 72.4596 127.355 71.7087H127.351ZM120.377 75.3338V67.3595H122.458V75.3338H120.377ZM120.377 66.1618V64.0507H122.458V66.1618H120.377ZM22.7148 37.6225H26.1324L31.2594 27.6634H26.9095L22.7148 37.6225Z" fill="#404040"/>
</svg>
